<?xml version="1.0" encoding="UTF-8"?>
<svg viewBox="0 0 744.09 1052.4" xmlns="http://www.w3.org/2000/svg">
 <path d="m505.26 732.65c-1.2356-3.8619 4.415-25.116 11.88-44.687 3.2453-8.5076 10.443-30.019 15.995-47.803 20.708-66.332 24.107-75.518 25.792-69.704 1.7067 5.8906 1.884 5.2887-25.08 85.102-8.8691 26.252-18.154 55.007-20.634 63.899-4.4902 16.102-6.1445 18.847-7.9533 13.193zm6.3432-15.503c1.3603-5.081 2.1145-9.2385 1.6761-9.2385-0.43842 0-1.9101 4.1574-3.2704 9.2385-1.3603 5.0812-2.1145 9.2384-1.6761 9.2384 0.43842 0 1.9101-4.1572 3.2704-9.2384zm39.841-121.09c3.0771-9.8602 5.5945-18.868 5.5944-20.017-2.44e-4 -1.9648-13.823 38.723-16.552 48.722-2.8887 10.583 5.801-12.181 10.958-28.706zm-116.13 131.28c-0.71985-1.3904-35.259-4.2806-51.245-4.288-5.261-0.002502-10.642-0.81769-11.957-1.8116-1.3152-0.9939-7.3766-2.381-13.47-3.0828-6.0932-0.70166-11.934-2.647-12.979-4.323-1.0454-1.676-12.919-4.3098-26.386-5.8527-30.153-3.4548-57.167-9.6678-57.167-13.148 0-1.432 2.3315-1.8708 5.1812-0.97504 2.8497 0.89587 8.3963 1.9979 12.326 2.4492 5.942 0.68237 7.1494-0.10376 7.174-4.6712 0.035095-6.4972 3.4948-11.333 8.1554-11.398 1.8387-0.025879 5.0251-2.865 7.081-6.3092 2.0558-3.4442 4.7352-5.5227 5.9541-4.6192 1.219 0.90356 2.5164 1.6429 2.883 1.6429 0.3667 0 0.66675 1.9303 0.66675 4.2897s1.1216 5.1212 2.4924 6.1372c1.3708 1.0161 2.0923 3.0978 1.6034 4.626-0.48895 1.5281 0.28064 3.6454 1.7102 4.705 2.3787 1.7632 2.366 2.4247-0.15051 7.7959-2.6828 5.7262-2.3968 5.8934 11.743 6.8646 10.488 0.72022 14.492-0.024658 14.49-2.6953-0.001984-2.0298 1.7257-7.295 3.8393-11.7 3.4927-7.2798 4.6186-7.8426 12.355-6.1768 19.184 4.1307 23.094 4.2946 28.104 1.1776 3.8319-2.3841 5.8431-2.2999 7.4729 0.31274 1.2265 1.9662 7.8348 4.1235 14.685 4.7939 6.8503 0.67053 15.139 2.1379 18.42 3.261 3.7084 1.2696 6.8117 0.68445 8.2034-1.5467 1.67-2.6772 4.948-2.7525 12.907-0.29663 7.8356 2.418 13.184 2.3359 20.143-0.30872 5.2112-1.9804 9.9312-2.7192 10.489-1.6418 0.55777 1.0774-0.50467 1.9589-2.3608 1.9589-1.8562 0-4.1697 2.4251-5.141 5.389-1.2053 3.6782-2.0234 4.2161-2.5768 1.694-0.55783-2.5423-1.9766-2.8389-4.5478-0.95062-4.0162 2.9495-10.224 2.5015-13.112-0.94617-0.97983-1.1697-2.9315-1.2744-4.337-0.23254-1.4056 1.0419-3.6225 0.18384-4.9266-1.9067-1.7288-2.7714-2.9396-2.8896-4.4698-0.43652-1.1543 1.8505-4.2033 3.3566-6.7755 3.3469-10.378-0.039185-22.517-1.9249-24.032-3.7333-0.88419-1.0555-3.7064-1.4592-6.2717-0.89691-2.5652 0.56232-5.5836-0.40533-6.7074-2.1503-1.412-2.1924-4.0084-2.0355-8.4026 0.50757-3.4975 2.0241-6.9963 2.9195-7.7752 1.9898-0.77878-0.92963-5.6065-1.8501-10.728-2.0452-5.1217-0.19513-10.161-1.67-11.198-3.2775-1.2686-1.9656-2.965-0.83856-5.1813 3.4424-1.8124 3.5008-3.9454 6.365-4.7401 6.365-0.79471 0-1.0698 2.7715-0.61121 6.1589 0.66663 4.9238 2.3151 6.274 8.2205 6.7329 10.759 0.836 16.125 1.9816 23.639 5.0471 4.1004 1.6727 7.2719 1.5978 8.1993-0.19354 0.95367-1.8422 4.9617-1.5209 10.85 0.86957 5.3142 2.1576 22.622 3.9398 40.17 4.136 25.451 0.28473 31.06-0.43665 32.13-4.1332 1.065-3.6768 2.0514-3.8146 5.5108-0.7699 5.3496 4.7081 6.8153 4.7125 4.3824 0.013-2.8318-5.4698-2.331-8.6226 1.3694-8.6226 1.8054 0 2.8391-1.3857 2.2973-3.0794-0.5419-1.6938-2.3778-3.0795-4.0796-3.0795-1.7019 0-3.0944-1.3858-3.0944-3.0794 0-4.5792 3.592-3.7306 7.6924 1.8171 2.902 3.9264 3.2432 5.7717 1.7218 9.3129-1.0436 2.4288-1.4716 5.2386-0.95126 6.244 0.52042 1.0051 3.7975-6.9965 7.2823-17.782 9.4098-29.121 14.784-43.271 15.736-41.432 0.46646 0.901-0.91266 6.1798-3.0647 11.73-2.1521 5.5506-6.5537 18.579-9.7814 28.952s-6.8528 20.437-8.0557 22.366c-1.203 1.9285-8.9179 4.188-17.144 5.0211-8.2265 0.83307-19.058 2.0172-24.07 2.6313-5.0119 0.61414-9.4169 0.52887-9.7887-0.18933zm-125.58-27.517c5.0614-1.9554 6.9595-7.3138 2.5906-7.3138-2.8956 0-3.1744-5.0353-0.39856-7.199 1.1905-0.92786 0.86957-1.6511-0.79709-1.7963-1.5344-0.13373-2.79-2.3219-2.79-4.8624 0-6.1509-3.1575-5.8781-5.5647 0.48077-1.0619 2.805-3.6518 5.461-5.7556 5.9023-2.1037 0.44128-4.2104 0.91779-4.6814 1.0589-0.47101 0.14111-0.96121 2.9451-1.0894 6.2308-0.1665 4.269 0.9881 6.3348 4.0449 7.2372 7.4462 2.1986 9.3377 2.2329 14.441 0.26129zm18.533-35.41c-12.695-7.1129-17.566-8.5017-23.914-6.8179-12.168 3.2277-37.547 2.1128-39.54-1.7371-2.2692-4.3834 1.9422-4.4489 13.416-0.20868 6.3063 2.3306 10.705 2.1666 16.558-0.61731 7.525-3.5788 7.7035-3.8874 3.1885-5.5144l-4.7827-1.7234 0.4351-21.525c0.23926-11.839 0.83234-27.935 1.3179-35.768 0.85916-13.861 0.75809-14.279-3.767-15.562-2.5575-0.72504-5.4821-0.78241-6.4992-0.1275-2.4438 1.5735-2.3609 10.716 0.14356 15.844 1.6083 3.2931 1.5314 3.8085-0.39859 2.6715-1.3153-0.77496-2.8445-5.4518-3.3984-10.393-0.73065-6.5186-1.0588-7.1862-1.1956-2.4326-0.19196 6.6669-4.9713 17.189-4.9713 10.944 0-1.8011 0.71741-4.1313 1.5942-5.178 0.8768-1.0469 1.5942-4.4315 1.5942-7.5214 0-6.4655-7.6345-10.68-10.643-5.8757-1.031 1.6465-3.1832 2.563-4.7827 2.0365-3.652-1.2022-4.8874 11.046-1.8349 18.19 1.7868 4.182 1.7439 4.7159-0.27615 3.4392-1.5827-1.0003-2.5586-6.5143-2.8859-16.306-0.47205-14.122-0.32715-14.71 3.1885-12.932 4.7603 2.4072 12.451-4.1783 12.451-10.662 0-2.7673-1.3681-6.9328-3.0401-9.2565-1.6721-2.3238-3.5111-7.3259-4.0868-11.116-0.97211-6.3998-0.67029-6.7468 4.2358-4.8696 4.3996 1.6834 4.9952 1.2911 3.5633-2.3475-0.94559-2.4028-1.663-9.9118-1.5942-16.686 0.10458-10.307 0.61597-12.154 3.1322-11.317 2.4796 0.82553 2.8066-0.255 1.864-6.159-2.8775-18.024-2.8964-21.018-0.13269-21.018 2.2572 0 2.0181-1.6088-1.4084-9.4747-4.9421-11.345-5.2826-16.284-0.93884-13.621 3.7493 2.2986 4.2168-2.2166 0.79712-7.6987-3.4113-5.4686-2.9554-10.242 0.79712-8.3462 3.8308 1.9351 3.8002 2.4225 0.62143-9.8856-1.5613-6.0456-2.2015-13.47-1.6341-18.95 0.51312-4.9557 0.37692-9.0103-0.30261-9.0103-2.5704 0-5.0617 7.696-5.0617 15.636 0 4.5349-1.1065 10.019-2.4589 12.187-1.7059 2.7348-1.95 4.9249-0.79709 7.1519 2.6735 5.1643 1.9674 7.2492-3.1209 9.215-4.883 1.8864-6.7216 8.1606-2.3914 8.1606 2.9857 0 3.0172-0.57916-0.79709 14.67-1.7537 7.0111-3.1656 15.24-3.1378 18.285 0.048126 5.2566 0.15823 5.2641 2.1685 0.14874 2.5665-6.5307 4.1577-6.9117 4.1577-0.9957 0 2.4164 1.2555 5.0272 2.7899 5.8017 1.5344 0.77463 0.44061 1.5691-2.4308 1.7656-4.0128 0.27448-5.5713 2.1384-6.736 8.0558-0.83344 4.2343-2.1634 7.6986-2.9556 7.6986-1.7045 0-5.938 18.496-5.3684 23.455 0.21724 1.8912-0.69061 5.1789-2.0174 7.3058-2.8259 4.5303-3.2795 10.671-0.54724 7.409 1.2541-1.4971 1.5317-0.54779 0.84717 2.8978-0.69192 3.4828-0.18881 5.1243 1.5704 5.1243 2.3701 0 2.3659 0.47485-0.050049 5.6315-1.4512 3.0974-2.6384 6.5617-2.6384 7.6987 0 3.4877 5.6232 2.2911 7.6523-1.6282 1.488-2.8742 1.9131-0.87714 1.9131 8.9866 0 13.958-1.2262 22.424-3.2478 22.424-0.7218 0-0.64505-4.4946 0.17056-9.9879 2.0732-13.963 1.8953-15.574-1.529-13.845-1.6566 0.83673-3.7118 0.65192-4.567-0.41077-2.2905-2.846-4.2315-37.346-2.1011-37.346 0.93994 0 1.709-2.6924 1.709-5.983 0-6.7941 6.0281-27.891 7.9694-27.891 0.70261 0 1.2213-5.1966 1.1525-11.548-0.068726-6.3515 0.89967-16.268 2.152-22.038 1.785-8.223 1.8464-10.774 0.28424-11.805-2.7591-1.8206-2.4911-5.989 0.79712-12.401 3.7414-7.2952 8.3697-21.288 8.3697-25.305 0-4.9758-7.4872-0.3718-19.131 11.764-5.6994 5.9401-10.644 11.222-10.988 11.737-0.34418 0.5152 0.37324 3.2742 1.5942 6.1312 1.7241 4.034 1.7748 5.4838 0.22719 6.49-3.1409 2.042-2.3249 9.1348 1.2594 10.945 2.5919 1.3093 3.043 3.2519 2.2222 9.5689-0.727 5.5952-0.31918 8.4528 1.3867 9.7174 3.2381 2.4002 4.8979 16.257 2.5906 21.627-1.1136 2.5917-3.3175 3.581-5.5579 2.4949-5.5885-2.7093-8.3083 1.915-3.842 6.5322 3.6519 3.7753 3.6371 3.8386-2.8401 12.118-6.2184 7.949-6.6909 8.0958-10.508 3.2654-3.9423-4.9896-4.5064-4.4684-41.738 38.556-33.792 39.05-38.351 43.468-43.565 42.218-5.2596-1.2607-6.6332 0.1228-14.186 14.289l-8.3628 15.685 10.355 3.6915c9.8451 3.5099 11.036 3.2465 24.206-5.3524 15.693-10.246 14.847-9.8736 14.847-6.5436 0 1.3751-6.4792 6.4999-14.398 11.388-13.805 8.5219-14.869 8.7322-25.822 5.1041-6.2833-2.0812-11.779-4.4688-12.212-5.3056-0.43322-0.83698 3.074-9.0747 7.7938-18.306 4.7198-9.2317 8.2648-17.354 7.8778-18.049-0.38706-0.69525-3.598-2.1866-7.1355-3.3142-6.2113-1.9798-6.7852-1.4069-16.74 16.711l-10.308 18.761-7.9712-1.8422c-26.577-6.1418-54.414-20.778-55.822-29.349-1.7066-10.387 1.9372-16.964 26.252-47.388 23.271-29.118 23.991-30.336 23.991-40.622 0-9.7946-0.25369-10.342-3.325-7.1664-3.0638 3.1672-6.2439 1.9186-4.3636-1.7134 1.1691-2.2583 37.426-30.906 57.11-45.124 30.073-21.722 36.016-27.995 35.262-37.22-0.10387-1.2703 0.93565-2.3097 2.31-2.3097 1.8198 0 2.2075 1.7726 1.4269 6.5232-0.78548 4.7806-0.49474 6.0735 1.0883 4.8397 1.188-0.926 7.0026-4.8271 12.921-8.6691 10.448-6.7825 12.4-9.6119 9.2365-13.389-0.83855-1.0011-1.1479-3.7163-0.68748-6.0338 0.53442-2.6903-0.21124-4.0464-2.0624-3.7508-1.9166 0.30603-2.8995-1.6249-2.8995-5.696 0-3.3874 0.89674-5.8125 1.9928-5.389 2.4096 0.93085 2.6556-4.2344 0.33371-7.0063-0.91251-1.0893-1.242-4.5189-0.73227-7.6212 0.50977-3.1024 0.18024-6.5318-0.73227-7.6213-0.91249-1.0894-1.6591-6.1716-1.6591-11.294 0-6.1241-0.68242-8.8469-1.9928-7.9513-1.1958 0.81723-1.8525 5.8465-1.6419 12.574 0.2886 9.2221-0.18997 11.212-2.6958 11.212-4.027 0-5.5774 5.3259-3.1769 10.913 1.5492 3.6058 1.4309 4.4843-0.60378 4.4843-1.3917 0-3.2559 2.6186-4.1427 5.819-1.3225 4.7733-0.97444 6.1502 1.9367 7.662 3.4828 1.8087 3.4598 1.9819-1.2338 9.3023-4.6615 7.2703-7.9566 8.2911-4.3642 1.352 0.99011-1.9124 1.408-7.2643 0.9288-11.893-0.48-4.6357-0.083176-9.3568 0.88347-10.511 0.96516-1.1522 1.7548-4.57 1.7548-7.5949 0-6.2837 5.297-16.752 6.9048-13.647 0.58649 1.1328 1.0663-2.8518 1.0663-8.8546 0-11.207 3.3496-19.902 6.3071-16.371 0.91522 1.0926 1.6641 5.9138 1.6641 10.714 0 5.1728 1.0428 9.5001 2.5604 10.625 1.801 1.3349 2.2721 4.117 1.5884 9.3791-0.53465 4.1147-0.25204 8.3409 0.62799 9.3915 2.6323 3.1425 1.8097 10.767-1.1898 11.028-2.2304 0.19434-2.3104 0.60333-0.39858 2.0393 1.3152 0.98792 3.1535 3.7936 4.085 6.2349 1.4259 3.737 4.2832 2.1459 18.073-10.064 16.086-14.243 16.512-14.433 23.814-10.624 8.6178 4.4958 13.019 8.3911 13.004 11.509-0.00589 1.2108-5.1036 7.5593-11.328 14.108l-11.318 11.907 3.3578 6.4859 3.3578 6.486 13.574-13.004c7.4656-7.1519 15.307-13.003 17.425-13.003 2.7802 0 3.993-1.9271 4.3608-6.9289 0.36905-5.0197 1.7539-7.2041 5.0262-7.9279 4.2372-0.93732 4.4839-0.37103 3.9856 9.1491l-0.5312 10.148 15.145 7.215c21.047 10.026 39.166 11.9 54.776 5.6651 6.8879-2.7515 15.225-5.0028 18.527-5.0028s9.1439-2.662 12.982-5.9156c3.838-3.2535 9.7018-6.8843 13.031-8.0683 3.329-1.184 5.6932-2.8471 5.2538-3.6959-1.5785-3.049-27.607-7.047-45.588-7.0023-33.456 0.083191-61.68-7.8974-63.412-17.93-0.34354-1.9905 3.087-6.9408 7.6234-11.001 4.5365-4.0598 9.3015-10.287 10.589-13.838 1.2876-3.551 3.2654-6.4564 4.395-6.4564s3.4205-3.0065 5.0908-6.6812c2.7927-6.1436 2.8078-6.5195 0.18802-4.672-1.567 1.105-6.9476 4.2548-11.957 6.9995-5.0093 2.7448-15.177 11.315-22.596 19.044l-13.488 14.054-10.239-3.388c-12.834-4.2463-15.227-8.1887-9.8149-16.166 9.3995-13.854 21.778-23.659 61.887-49.019 39.454-24.946 42.561-27.433 42.892-34.336 0.19623-4.093-0.042908-5.7096-0.53137-3.5924-1.0976 4.7569-6.9994 5.1283-6.9994 0.4404 0-1.8749-1.0064-2.663-2.2364-1.7512-1.23 0.91174-3.552-0.20065-5.1601-2.4718-2.8007-3.9558-2.8048-4.3834-0.098083-10.161 2.7414-5.8513 2.7051-5.9866-1.2169-4.5384-5.0706 1.8723-5.4931-5.7134-0.85397-15.332 1.7537-3.636 3.1885-9.7322 3.1885-13.547 0-3.8149 0.71744-7.7927 1.5942-8.8395 0.87683-1.0468 1.5943-5.2539 1.5943-9.3492 0-4.5442 1.5532-9.4118 3.9856-12.49 2.1921-2.7744 3.9856-7.6565 3.9856-10.849 0-3.1926 0.73517-5.8048 1.6337-5.8048 0.8985 0 2.3156-3.4644 3.149-7.6987 1.1601-5.894 2.6574-7.6987 6.3875-7.6987 5.5588 0 7.8487 7.0258 5.0806 15.588-1.4583 4.5104-1.0677 6.8548 2.1122 12.68 4.5709 8.3731 4.9601 11.766 1.3499 11.766-1.8774 0-1.3997 1.8333 1.708 6.5552 4.447 6.7569 4.0417 10.234-1.493 12.805-3.0056 1.3965-2.9926 1.5019 0.22797 1.8387 3.4347 0.35912 6.7958 10.206 4.0806 11.954-1.728 1.1126-0.55396 15.479 1.4616 17.886 0.77219 0.92175 1.4165 0.5549 1.432-0.81537 0.015411-1.3702 0.43115-11.499 0.92386-22.508 0.49274-11.009 1.3769-39.374 1.9648-63.033l1.0689-43.017 7.4438 0.8911 7.4439 0.8911 0.9388-16.384c0.51636-9.0115 1.1498-26.675 1.4078-39.253l0.4688-22.868 6.534-4.6018c6.0864-4.2866 7.0634-4.1592 14.262 1.8602l7.7283 6.4621-0.4936 31.786c-0.27145 17.483-0.85672 34.212-1.3005 37.176-0.61319 4.0946 0.13513 5.389 3.1154 5.389 4.8177 0 5.8546-4.8051 5.8691-27.197 0.006226-9.6003 0.45709-26.569 1.0018-37.708l0.9905-20.253 13.048-9.5304 13.048-9.5304 12.583 5.1473 12.583 5.1473-0.356 16.937c-0.19586 9.3154-0.79788 25.817-1.3379 36.671-0.91989 18.489-0.79239 19.581 2.0208 17.311 1.6515-1.3326 4.4908-3.0526 6.3097-3.8222 3.1441-1.3305 44.943 12.759 46.442 15.655 0.39209 0.75756-0.027588 23.213-0.93268 49.901-0.90521 26.688-1.3281 49.516-0.93994 50.73 0.38831 1.2133 4.7736 3.1878 9.7452 4.3877 4.9717 1.1998 9.9532 2.859 11.07 3.6869 1.3427 0.99532 2.2034-1.9696 2.54-8.7505 0.42078-8.477 1.2364-10.419 4.7024-11.195 4.1195-0.92233 4.2052-1.4223 4.873-28.403 0.3739-15.105 1.1018-28.279 1.6176-29.276 0.51569-0.99623 5.3175-0.85414 10.671 0.31575l9.733 2.127v36.158h8.6354c4.7495 0 8.8746 1.376 9.1669 3.0578s-0.086914 24.623-0.84265 50.98c-0.75568 26.357-1.0866 48.477-0.73541 49.156 1.2394 2.3941 31.741-7.1977 33.902-10.661 1.2046-1.9312 3.3661-8.2976 4.8032-14.148 2.6251-10.686 8.8403-15.169 8.8403-6.3765 0 2.343 1.4348 4.9848 3.1885 5.8707 3.3484 1.6914 4.3251 9.7053 1.5821 12.98-1.0043 1.1989-0.74823 3.5758 0.68317 6.3407 3.2556 6.2887 3.7576 5.7728 6.8915-7.084 3.4564-14.179 7.7687-16.634 9.93-5.6544 0.8576 4.3575 2.2946 7.9228 3.193 7.9228 2.368 0 2.0134 12.293-0.35913 12.447-1.096 0.070984 0.20856 2.4961 2.8992 5.3891 9.307 10.008 18.429 26.203 16.258 28.865-1.5068 1.8474-1.3756 2.4878 0.51697 2.523 1.7742 0.03299 3.1395 5.2551 4.5444 17.381 2.1429 18.497 1.2336 22.545-5.0878 22.652-5.2377 0.08847-2.8008 4.9819 5.2742 10.591 4.9766 3.4568 10.165 4.9429 13.551 3.8814 3.0178-0.94598 5.4869-0.57284 5.4869 0.82904 0 6.3112-12.37 5.1209-22.699-2.1843-7.5166-5.316-12.064-6.9113-15.145-5.3131-4.3904 2.2774-4.3825 2.302 2.7708 8.5256 3.9457 3.4329 6.4566 6.5919 5.5798 7.02-19.756 9.6462-26.709 11.313-32.708 7.8409-3.4927-2.0213-6.3503-4.9332-6.3503-6.4708 0-1.5629 2.1691-1.3351 4.919 0.51663 5.0828 3.4226 20.678 1.3792 24.982-3.2733 1.8274-1.9753 1.1697-3.3842-2.8399-6.0842-2.8699-1.9325-7.1729-3.5136-9.5623-3.5136s-7.3098-2.021-10.934-4.4912c-5.8814-4.0082-7.7455-3.9343-17.338 0.68774l-10.749 5.1787 8.3697 2.6267c4.6035 1.4448 8.3698 3.6584 8.3698 4.9192 0 2.2334-10.473-0.18192-19.766-4.5584-3.2878-1.5485-4.2956-1.1591-3.493 1.3496 0.62048 1.9393 2.1266 3.526 3.347 3.526 5.5904 0 18.607 7.1628 21.641 11.909 3.3087 5.1752 3.1488 5.5036-10.55 21.673-12.96 15.298-14.407 16.286-21.212 14.485-4.0167-1.0635-8.0134-3.306-8.8818-4.9834-2.0623-3.9837 1.2955-3.9539 8.81 0.077942 5.352 2.8717 6.6389 2.0629 17.935-11.27 6.6932-7.9 12.169-15.398 12.169-16.661 0-3.1681-15.347-10.003-23.116-10.295-3.5074-0.13178-10.516 1.7033-15.575 4.0781-8.2656 3.8799-9.3969 3.812-11.16-0.66919-3.3214-8.4434-10.338-11.864-17.11-8.3421-5.9039 3.0708-6.0841 3.5816-6.6201 18.773-0.30304 8.5889-0.25214 16.193 0.11322 16.898 0.36536 0.70493 6.6003 1.2816 13.856 1.2816 7.5767 0 13.636 1.3901 14.236 3.266 0.71234 2.2261-1.9225 2.7473-8.2756 1.6369-25.584-4.4715-30.682-4.8166-31.54-2.1347-0.52154 1.63 3.7811 3.799 9.8497 4.9652 14.984 2.8793 32.556 9.9955 34.585 14.006 1.2101 2.3919 0.32385 5.4984-3.0844 10.81-2.6305 4.0995-5.3553 7.4605-6.055 7.4689-0.69971 0.008362-5.1835 4.8482-9.964 10.755-4.7804 5.9069-8.6916 9.3898-8.6916 7.7398 0-1.6501 5.7687-9.4747 12.82-17.388 7.7811-8.7331 12.244-15.499 11.356-17.214-0.80481-1.5545-8.1877-4.8326-16.407-7.2848-8.2188-2.4521-18.172-5.7025-22.117-7.223-5.7773-2.2264-7.7269-1.802-10.014 2.1795-1.5618 2.7194-6.225 5.9575-10.362 7.196-4.1375 1.2386-11.74 5.1297-16.895 8.647-9.6376 6.5764-15.304 6.5308-29.196-0.23465-4.9106-2.3916-8.8491-2.251-14.852 0.53052l-8.1688 3.7853 3.3759 6.9412c2.8971 5.9568 3.2225 9.174 2.2945 22.687-0.88879 12.942-0.62161 16.087 1.5004 17.66 1.8123 1.3434 2.2952 4.1195 1.6201 9.3153-0.76968 5.924-0.36966 7.2994 2.0042 6.8896 7.2426-1.2498 10.278 0.76758 11.651 7.7427 2.0072 10.198 4.6761 11.541 26.758 13.468l19.502 1.7012 4.412-10.115c7.6503-17.539 14.933-30.811 16.881-30.764 1.0336 0.025177-0.69763 4.529-3.8471 10.008-3.1494 5.4794-7.6256 15.047-9.9468 21.262-3.8862 10.404-5.0117 11.451-14.202 13.213-5.4895 1.0524-15.003 0.63898-21.141-0.91864-9.2373-2.3442-11.64-2.0184-13.95 1.8918-1.5344 2.5983-2.7899 6.5879-2.7899 8.8661 0 2.278-1.2555 4.3013-2.7899 4.496-4.781 0.60687 9.5966 5.4402 16.74 5.6273 3.7265 0.097656 6.7754 1.432 6.7754 2.9649 0 1.5334-4.2122 2.0497-9.3624 1.1477-8.1456-1.4268-9.8138-0.76794-12.835 5.0687-2.2006 4.2508-4.5655 6.0389-6.4548 4.8806-1.8386-1.1271-4.0994 0.43591-5.8968 4.077-3.1928 6.4678-13.453 7.1973-14.517 1.0322-0.39816-2.3073-2.834-1.2784-7.2306 3.0543-6.209 6.1185-6.4038 6.6954-3.0657 9.0807 4.9751 3.5549 4.4687 6.931-0.66614 4.4417-4.279-2.0746-13.306 3.1337-13.306 7.6771 0 4.3048 11.445 9.9683 24.674 12.21l12.791 2.1674-13.049 0.4426c-7.1768 0.24335-14.843-0.87518-17.036-2.4855-4.1583-3.0538-3.7651-3.3654-24.712 19.585-4.4968 4.9269-8.176 10.723-8.176 12.88 0 2.1573-1.2555 4.677-2.79 5.5994-4.6348 2.7861-19.837 0.041565-28.304-5.1099-17.199-10.464-19.732-9.9494-34.298 6.9606-7.2788 8.4502-14.016 15.21-14.972 15.021-0.95615-0.18896-8.9124-4.363-17.681-9.2758zm18.789-41.962c0.50467-19.054 0.29364-34.644-0.46896-34.644-0.76257 0-6.8698-10.047-13.572-22.326-6.7018-12.279-13.415-23.452-14.918-24.827-1.723-1.5765-6.0927-0.07251-11.825 4.0707l-9.0926 6.5714v22.41c0 12.326-0.45721 32.859-1.0161 45.629-1.1184 25.557-1.6993 23.92 10.114 28.507l5.1122 1.985 0.4676-24.081c0.46097-23.737 0.52624-24.074 4.5724-23.576 2.2576 0.2782 6.9208 1.9672 10.362 3.7532l6.2578 3.2471-0.514 26.157-0.514 26.157 4.4996 1.9237c2.4748 1.0581 5.217 2.2819 6.0938 2.7197 2.6104 1.3034 3.4744-7.1946 4.4406-43.677zm7.7115 36.845c0.10751-1.2108 0.64554-16.752 1.1957-34.536l1.0003-32.334 11.957-11.331c6.5762-6.232 12.754-11.429 13.727-11.548 1.2331-0.15112 1.5399 8.8978 1.0105 29.808-0.50818 20.073-0.23013 29.004 0.8389 26.945 2.0767-3.9994 4.3664-73.464 2.3715-71.948-0.81119 0.61639-9.4858 7.9479-19.277 16.292l-17.802 15.172-0.0095 15.623c-0.005249 8.5926-0.4769 27.221-1.0481 41.396-1.0358 25.705-1.0294 25.764 2.4009 22.218 1.8917-1.9556 3.5274-4.5461 3.6348-5.7569zm-24.429-27.055l-0.4769-21.164-6.919-2.6327c-3.8054-1.4479-7.2306-2.0308-7.6114-1.2952-0.38086 0.73572-1.0026 10.889-1.3818 22.562l-0.6894 21.225 1.4495-19.614c0.79721-10.787 1.7636-20.22 2.1476-20.962 0.38397-0.74164 3.1084-0.1181 6.0542 1.3857l5.3561 2.7341-0.2262 22.36c-0.14133 13.972 0.33661 21.273 1.274 19.462 0.8251-1.5938 1.2856-12.422 1.0233-24.062zm30.493-18.413c0.064972-8.5533 1.0149-17.296 2.1109-19.429 1.5971-3.1078 1.4794-3.5004-0.59308-1.9774-2.9601 2.1755-4.6946 20.907-4.3886 47.396l0.1996 17.277 1.2765-13.858c0.70209-7.6218 1.3297-20.856 1.3948-29.409zm-34.704 21.572c0.50082-15.66 0.24252-17.222-3.1152-18.847-4.5745-2.2128-4.4743-2.4747-5.7997 15.164-1.0076 13.41-0.78778 14.898 2.5856 17.512 5.6992 4.4153 5.7492 4.306 6.3292-13.829zm95.494 12.94c-2.7851-5.3799-1.93-7.3845 2.6988-6.3265 2.4113 0.55127 3.1287 0.25745 1.5942-0.65283-3.4106-2.0231-3.6995-7.3622-0.39859-7.3622 1.3153 0 2.3914-1.3858 2.3914-3.0795 0-1.6938-1.7936-3.0795-3.9856-3.0795-5.1288 0-5.562-10.803-0.53494-13.343 2.7401-1.3842 3.0712-2.6261 1.6081-6.0315-1.0134-2.3587-1.3108-5.3954-0.66074-6.7481s-0.74707-1.5665-3.1046-0.47528c-4.7314 2.1902-7.506-2.667-4.6618-8.1609 2.8746-5.5527 2.1162-14.513-1.2283-14.513-1.6618 0-3.3748-2.7503-3.8364-6.159-0.96896-7.1575-4.3207-8.3519-4.3207-1.5397 0 2.5405-0.71741 4.6192-1.5942 4.6192-0.8768 0-1.5942 2.6898-1.5942 5.9772s0.71744 6.8336 1.5942 7.8804c2.9897 3.5691 1.7448 10.278-1.5942 8.5909-1.8532-0.9361-3.1885-0.094421-3.1885 2.0098 0 1.9913-0.71741 2.764-1.5942 1.7172-2.1782-2.6005-2.0248 5.6352 0.18451 9.9027 1.3088 2.5282 1.0982 5.3126-0.79715 10.54-3.8498 10.617-3.208 14.972 2.2069 14.972 2.6305 0 4.7827 1.3857 4.7827 3.0795 0 1.6937-1.0761 3.0795-2.3914 3.0795-3.3223 0-3.0074 5.4458 0.39856 6.8917 1.5344 0.65137 6.5973 1.2479 11.251 1.3255 5.9455 0.099304 7.9598-0.82654 6.7755-3.1141zm-44.78-41.518l0.0504-22.557-6.7755 7.2086-6.7755 7.2085-0.4652 23.779-0.4653 23.779 7.1903-8.4303 7.1904-8.4303 0.0504-22.557zm17.839 33.821c-4.1081-7.9354-8.678-9.6033-13.162-4.8038-3.7819 4.0482-3.7601 4.1012 1.7503 4.2556 3.0689 0.085876 6.6559 1.4995 7.9711 3.1414 4.2236 5.2723 6.5891 3.4893 3.4402-2.5932zm41.996-9.9407c2.6305-3.2586 6.7556-7.4501 9.1668-9.3146 4.5062-3.4842 5.9532-8.9463 2.3701-8.9463-2.0845 0-18.711 20.596-18.711 23.178 0 2.6726 2.3448 1.0655 7.1741-4.917zm-55.19-34.941c0.26791-30.25-0.81384-24.068-1.8411 10.522-0.49365 16.621-0.32443 25.265 0.39178 20.017 0.69339-5.0812 1.3456-18.823 1.4493-30.538zm13.581 27.494c2.1586-6.3637 2.2573-8.7472 0.58191-14.052-1.7647-5.5876-1.5044-7.2503 2.0765-13.263 2.2519-3.7811 3.7972-8.5962 3.4341-10.7-1.1731-6.798 4.3708-25.149 7.5977-25.149 2.9483 0 5.5258 4.8646 5.5747 10.522 0.013428 1.5526 0.92117 3.4002 2.0172 4.106 1.4565 0.9378 1.9928-4.0464 1.9928-18.521v-19.804l-9.1668-16.658c-5.0418-9.162-14.779-26.262-21.638-38.001l-12.472-21.343-20.21 7.5547-20.21 7.5547-0.4781 19.456c-0.42999 17.497-0.18918 19.296 2.3914 17.867 16.378-9.0655 23.222-11.682 26.314-10.063 2.0114 1.0531 9.1077 11.958 15.77 24.234l12.112 22.319-1.0816 38.493c-0.96616 34.388-0.48666 42.394 2.5796 43.065 0.11838 0.026001 1.385-3.4014 2.8148-7.6164zm-325.86-0.1665c-4.8226-2.3248-10.203-4.1525-11.957-4.0616-4.3103 0.22321 11.704 8.0533 16.74 8.1845 2.1921 0.057251 0.039841-1.7981-4.7827-4.1229zm32.652-6.6203c4.87-7.5061 5.1262-8.6636 2.7048-12.22-1.4712-2.1606-5.5445-3.9732-9.0518-4.028-3.5073-0.054626-10.151-2.8702-14.764-6.2568-4.6128-3.3865-9.6346-6.1682-11.16-6.1814-4.1917-0.036316-6.8972-13.546-4.6156-23.048 1.0135-4.2211 2.4811-7.6854 3.2613-7.6987 0.78017-0.013123 2.3167-2.3967 3.4145-5.2968 1.6176-4.2731 2.4467-4.5504 4.373-1.4622 2.0035 3.2118 2.4883 2.3467 3.0849-5.5053 0.38931-5.1238 0.39016-9.316 0.001877-9.316-0.38831 0-4.0304 4.668-8.0936 10.373-4.0632 5.7052-13.999 18.231-22.079 27.835s-15.074 18.658-15.541 20.12c-1.8123 5.6642 10.884 15.4 29.701 22.776 26.418 10.355 31.994 10.342 38.763-0.090637zm337.3-1.0536l7.5394-9.3453 1.1393-36.077 1.1394-36.077 7.1031-8.4686c3.9068-4.6578 7.6083-8.4686 8.2256-8.4686 0.6174 0 0.85162 15.288 0.52054 33.973l-0.602 33.973 5.7365-6.5378c4.6351-5.2826 5.4495-7.5737 4.2419-11.932-2.0981-7.5728-0.84549-40.473 1.6546-43.457 1.1274-1.346 2.2254-4.7582 2.4401-7.5828 0.2146-2.8246 1.5653-7.6439 3.0017-10.71 1.7436-3.7217 2.4459-9.7133 2.1133-18.029l-0.4982-12.455-18.28 19.982c-10.054 10.99-23.864 26.351-30.689 34.136l-12.409 14.154-0.1227 15.728c-0.067505 8.6504-0.24689 20.247-0.39859 25.771-0.19885 7.2393 0.31677 9.6031 1.8473 8.4685 1.1678-0.86578 2.7461-1.574 3.5075-1.574 0.76135 0 1.5995-7.7562 1.8624-17.236 0.46243-16.67 0.70035-17.489 7.2536-24.948l6.7755-7.7128v21.914c0 21.401-0.12131 22.059-5.1812 28.105-2.8497 3.4047-6.4908 5.5653-8.0914 4.8014-2.5702-1.2267-2.7866 0.02356-1.8527 10.701 0.90799 10.382 0.64334 12.121-1.8726 12.307-2.6668 0.1969-2.6436 0.45416 0.25842 2.863 4.8859 4.0555 5.5604 3.7456 13.637-6.2656zm-387.09 1.1466c-1.096-0.85419-2.8895-0.85419-3.9856 0-1.096 0.85431-0.19928 1.5533 1.9928 1.5533s3.0888-0.69898 1.9928-1.5533zm-13.856-8.8365c-1.702-2.4868-3.8542-4.4772-4.7827-4.4233-0.92846 0.053833-0.29551 2.1324 1.4065 4.6192 1.702 2.4866 3.8542 4.4772 4.7827 4.4233 0.92846-0.053955 0.2955-2.1326-1.4065-4.6192zm106.56-37.25l1.1083-35.808-12.301-21.894c-20.299-36.13-16.805-34.038-33.988-20.347-8.1918 6.5274-15.435 12.99-16.096 14.361-0.66103 1.3712-1.4571 18.382-1.769 37.802l-0.5671 35.309 15.145 6.9278c21.672 9.9134 20.205 11.092 20.584-16.537 0.35162-25.664 0.82421-29.059 3.7791-27.152 1.068 0.68939 4.8114 2.6674 8.3187 4.3958l6.377 3.1427-0.5561 25.98c-0.58154 27.168-0.44299 27.74 7.0976 29.271 1.1361 0.23071 2.1512-12.321 2.8671-35.451zm-52.852-0.2392c-3.1977-1.1897-3.587-3.1599-3.587-18.154 0-18.798 1.0642-20.709 9.5654-17.177 5.5082 2.2886 5.586 2.5443 6.0579 19.912 0.47612 17.52 0.45961 17.591-3.9856 17.174-2.455-0.23071-6.0778-1.02-8.0507-1.754zm8.0245-23.232c-1.4173-5.1141-4.9087-1.8469-5.6111 5.2507-0.52007 5.2551 0.030853 7.8643 1.8069 8.5579 2.4603 0.96063 5.1707-8.8778 3.8042-13.809zm11.368 53.549c0.46664-1.4586-5.0509-5.029-12.261-7.9343-7.2104-2.9053-14.365-5.9626-15.9-6.7941-1.5344-0.83148-2.7899-0.19702-2.7899 1.4097 0 3.4893 12.208 9.8115 18.946 9.8115 2.6289 0 5.2232 1.3857 5.7651 3.0794 1.2084 3.777 5.0836 4.0425 6.2401 0.42773zm15.581-2.5313c-1.1508-0.88953-2.5259-0.78015-3.0556 0.24304-0.52976 1.0234 0.41186 1.7512 2.0924 1.6174 1.8572-0.1477 2.235-0.8775 0.9632-1.8605zm5.9295-21.027c0.33377-24.359 0.49898-23.8-8.0945-27.421-4.1856-1.7639-4.2757-1.4639-5.3424 17.776-0.5967 10.764-0.76835 22.195-0.38137 25.403 0.38697 3.2081 1.2734-4.2881 1.9698-16.658 1.2339-21.919 1.3722-22.467 5.4359-21.556 4.0798 0.91431 4.1676 1.4161 4.068 23.261-0.13486 29.574 1.9381 28.863 2.3446-0.80414zm50.667-17.673l35.483-40.803 0.0437-20.535c0.04245-19.958 0.19453-20.715 5.4131-26.945 2.9532-3.5254 5.8799-6.4101 6.5038-6.4101 0.62395 0 0.63504 9.0074 0.024689 20.017-0.69563 12.547-0.52336 20.016 0.46161 20.016 1.8186 0 3.5399-17.365 3.5652-35.967l0.0176-12.871-6.7755 7.2519c-13.971 14.954-53.508 54.635-66.879 67.124l-13.871 12.956-0.0965 16.937c-0.053101 9.3154-0.54121 22.134-1.0847 28.485-0.54349 6.3515-0.38109 11.548 0.36089 11.548 0.74197 0 17.316-18.361 36.832-40.803zm273.9 34.679c0.55853-1.7456-0.08139-2.2618-1.5002-1.2102-2.7619 2.0472-3.2672 4.2545-0.97403 4.2545 0.82513 0 1.9385-1.3699 2.4742-3.0442zm-328.52-15.916c0.77977-11.355 0.51926-16.562-0.91418-18.274-1.1026-1.3163-2.577-1.7101-3.2766-0.875-1.5342 1.8315-1.7132 30.07-0.20895 32.976 2.3444 4.5286 3.3578 1.3438 4.3997-13.827zm322.95-11.219c0-14.905 0.71484-28.767 1.5885-30.806 1.0217-2.3838 0.78684-2.3288-0.6582 0.15399-2.4001 4.1238-4.3743 57.752-2.126 57.752 0.65765-1.83e-4 1.1957-12.195 1.1957-27.1zm-15.637 19.865c2.403-3.5281 6.1277-35.878 4.1309-35.878-0.41666 0-3.02 2.1801-5.7852 4.8447-4.621 4.4529-5.0276 6.0718-5.0276 20.016 0 15.928 1.5718 18.52 6.682 11.017zm22.605-27.66c0.75504-18.489 0.52338-23.819-0.99286-22.843-2.3111 1.4882-4.1584 19.015-4.2887 40.691-0.078766 13.106 0.22125 14.644 2.1025 10.778 1.2531-2.5755 2.6166-14.852 3.179-28.626zm4.0739-15.05c0.10089-17.667-0.25076-20.416-2.4069-18.818-1.894 1.4039-2.0317 2.4605-0.55112 4.2281 1.4525 1.7341 1.7433 10.366 1.1006 32.676-0.58069 20.159-0.43558 25.675 0.43292 16.462 0.71851-7.6217 1.3595-23.168 1.4245-34.548zm-384.39 30.672c0.37377-6.2554-0.19299-8.4423-2.188-8.4423-2.0108 0-2.2625-1.0007-0.99423-3.9526 1.0766-2.5058 1.157-5.6059 0.21964-8.4686-1.2946-3.9539-1.4817-3.9554-1.503-0.01239-0.013397 2.4769-1.9973 7.5493-4.4086 11.272l-4.3841 6.7683 3.8969 6.5456c5.0184 8.4292 8.7238 6.9606 9.3614-3.7101zm290.84-10.975c9.4259-7.9112 17.138-15.225 17.138-16.254 0-1.0284-5.1307-10.484-11.402-21.013-13.057-21.922-10.367-21.746-36.337-2.3724l-17.925 13.372 12.505 22.002c9.2868 16.339 13.326 21.57 15.694 20.326 1.7537-0.922 10.901-8.1491 20.326-16.06zm119.17 12.101c0-7.5555 4.0695-10.48 7.9944-5.7457 2.4277 2.9285 3.5133 2.8962 5.0908-0.15082 1.6106-3.1112 1.3048-4.2269-1.5544-5.6711-3.5049-1.7705-5.2105-13.398-1.9654-13.398 0.87686 0 1.415-1.6675 1.1957-3.7056-0.21927-2.038 0.67752-3.7701 1.9928-3.8493 4.8213-0.28998 3.8272-6.3322-1.1957-7.2676-5.7303-1.0673-7.4225-9.8132-1.8986-9.8132 1.8054 0 2.8749-1.274 2.3767-2.8312s-3.5896-2.5966-6.8696-2.3096c-5.3994 0.47229-6.0115-0.27972-6.4681-7.9459-0.4443-7.4577-0.88867-8.0702-3.727-5.136-2.3328 2.4116-2.9681 5.2901-2.3008 10.426 0.69626 5.3584 0.14539 7.4864-2.2514 8.697-3.7395 1.8889-4.4195 14.497-0.78186 14.497 1.3153 0 2.3914 1.3857 2.3914 3.0795s-0.99936 3.0795-2.2208 3.0795c-3.5093 0-4.7 10.093-1.6919 14.341 1.4508 2.0493 2.1437 5.2701 1.5397 7.1576-2.0487 6.4031 0.61108 12.375 5.5115 12.375 3.6789 0 4.8327-1.3918 4.8327-5.8295zm-193.16-12.54c0.2959-3.9101-0.41547-8.2475-1.5809-9.6389-1.6875-2.0146-1.716-3.308-0.13946-6.3532 2.3704-4.5789 2.6319-19.926 0.38522-22.608-0.87683-1.0468-1.5942-4.6863-1.5942-8.088 0-4.7834 0.72247-5.7418 3.1885-4.2299 5.0299 3.0837 3.8314-4.2605-2.6106-15.996-4.3333-7.8941-5.3406-11.45-3.9856-14.067 1.3551-2.6175 2.297-2.5688 3.7265 0.19247 1.0522 2.0324 2.9282 3.6954 4.1689 3.6954 1.8588 0 1.8026-1.3362-0.31879-7.5903-1.4161-4.1747-2.5747-12.605-2.5747-18.734 0-12.349-3.5956-13.742-4.5069-1.7462-0.28665 3.7739-2.2595 8.3915-4.3841 10.261-2.1246 1.8698-3.8629 5.256-3.8629 7.5247 0 2.2686-1.2196 4.1249-2.7102 4.1249-2.1079 0-2.285 0.8212-0.79712 3.6953 3.2248 6.2291 2.3733 21.285-1.309 23.145-2.118 1.0698-2.7362 2.8178-1.8041 5.1008 0.77985 1.9102 1.4644 7.9738 1.5211 13.474 0.084717 8.212-0.61914 10.352-3.9339 11.958l-4.037 1.9573 4.3858 6.7552c3.5403 5.4527 4.1804 8.3365 3.3202 14.957-0.95505 7.3502-0.64929 8.1348 2.9464 7.5599 2.2067-0.35272 4.0231-2.0713 4.0365-3.819 0.014648-1.9083 0.49228-1.7823 1.1957 0.31543 1.2236 3.6493 6.4009 6.989 9.1424 5.8976 0.87683-0.34906 1.8364-3.8339 2.1323-7.7439zm28.631-33.868c9.0281-5.551 16.087-10.726 15.687-11.499-1.1626-2.2458-20.198 8.6612-28.913 16.567-9.4853 8.6041-8.2257 8.1215 13.226-5.0683zm-132.34-34.344c21.668-22.214 40.699-41.712 42.29-43.327 3.525-3.58 2.7345-5.7224-9.9345-26.923l-8.9754-15.02-47.79 33.199c-26.284 18.259-47.79 34.589-47.79 36.287 0 3.409 29.538 55.911 31.546 56.072 0.69063 0.05542 18.984-18.074 40.653-40.289zm116.38 34.648c3.2532-3.1575 9.6119-7.4207 14.131-9.4741 9.183-4.1729 10.06-6.9611 10.096-32.106 0.02063-14.227-0.17493-14.914-3.8608-13.553-2.1354 0.78845-4.7645 0.38058-5.8426-0.90637-1.2209-1.4576 7.0071-11.202 21.818-25.839 15.544-15.362 21.846-22.885 18.198-21.726-3.0689 0.97549-11.969 3.916-19.778 6.5344-16.176 5.424-25.663 4.1296-48.768-6.6545-8.3265-3.8862-15.436-6.4916-15.8-5.7896-0.36343 0.70194 0.70041 4.1814 2.364 7.7322 2.9018 6.1937 2.9083 6.6203 0.16049 10.502-1.808 2.5538-2.2411 4.7891-1.1745 6.0626 2.5381 3.0301 2.0316 10.892-0.70172 10.892-3.3589 0-2.9734 3.9752 0.8306 8.5642 2.8959 3.4934 3.5616 2.7742 6.5802-7.1082 4.3405-14.21 8.3529-13.238 9.019 2.1845 0.26819 6.2086 1.5236 12.949 2.7899 14.979 3.0148 4.8331 2.9508 14.967-0.10889 17.235-2.0625 1.5288-1.9311 3.2879 0.90915 12.165 3.4613 10.818 2.8807 18.33-1.1838 15.317-1.5145-1.1227-2.0295-0.36859-1.434 2.0997 0.51111 2.1183 1.3722 6.2766 1.9134 9.2405 1.241 6.7963 2.5252 6.7504 9.8426-0.35187zm155.48-39.821l20.431-23.052-5.4172-11.115c-2.9795-6.1134-8.5865-17.997-12.46-26.408-3.8735-8.4108-10.28-22.014-14.236-30.228l-7.1929-14.936-26.286 25.531c-14.457 14.042-26.824 26.028-27.482 26.636-0.65762 0.60776-1.1957-0.092407-1.1957-1.5558s9.301-11.559 20.669-22.434c11.368-10.876 20.506-20.088 20.307-20.472-0.19894-0.38434-11.68 5.457-25.514 12.981-20.255 11.016-30.029 18.436-50.199 38.111-13.776 13.438-24.52 24.505-23.877 24.594 5.3288 0.74011 40.631-16.909 46.504-23.248 4.0299-4.3507 7.3271-6.5224 7.3271-4.8258s-2.1522 4.9249-4.7827 7.174c-2.6305 2.2492-4.7827 4.9772-4.7827 6.0621 0 1.0851 10.471 20.192 23.27 42.46l23.27 40.488 10.608-11.355c5.8342-6.2449 19.802-21.728 31.039-34.406zm-231.27 32.037c1.5344-2.2499 2.7899-4.8292 2.7899-5.7316 0-3.9131-5.1436-4.9293-8.7747-1.7336-3.068 2.7002-3.556 4.4072-2.1773 7.616 2.2158 5.1572 4.5717 5.1137 8.1621-0.15088zm-6.193-11.966c2.2005-3.108 2.6835-7.5912 2.2975-21.328-0.4451-15.842-0.73348-17.045-3.2347-13.494-1.7472 2.4802-3.1318 10.238-3.8066 21.328-1.0991 18.065-0.23419 20.525 4.7437 13.494zm19.196-10.996c0.45984-1.4372-0.57393-5.5365-2.2973-9.1096-1.7233-3.5732-3.1333-10.794-3.1333-16.046 0-5.5818-0.66234-8.7582-1.5943-7.6457-1.7667 2.1091-2.2128 30.113-0.53139 33.361 1.5111 2.919 6.5629 2.5446 7.5562-0.56012zm292.69-58.594c3.9457-3.5235 9.822-6.4369 13.058-6.4741 6.1058-0.070068 9.5718-5.0076 5.5882-7.9605-2.3621-1.7509-29.991 11.96-35.087 17.412-1.5893 1.7003-4.2192 2.2764-5.8442 1.2802-1.625-0.99631-3.4821-0.16281-4.1268 1.8523-1.9004 5.9393 18.1 1.3126 26.412-6.11zm-44.705 3.7049c6.2706-1.4541 7.8294-2.6552 5.5798-4.2999-1.7169-1.2551-4.7451-1.5661-6.7294-0.69101-1.9842 0.87512-4.6739-0.11813-5.9769-2.2071-1.8785-3.0115-3.3557-3.0087-7.1331 0.013519-2.6201 2.0964-4.372 5.0366-3.8929 6.5338 1.0308 3.2216 6.2575 3.4091 18.153 0.65073zm22.906-5.4064c3.42 2.5351 4.948-4.3734 2.3055-10.423-1.248-2.8572-2.4058-9.6987-2.5728-15.203-0.24811-8.1756 0.28479-10.008 2.9101-10.008 1.7938 0 3.2138-2.0409 3.2138-4.6192 0-2.5405-0.95844-4.6192-2.1299-4.6192-1.3884 0-2.2191-4.3853-2.3855-12.594-0.1405-6.9264-0.66638-13.878-1.1686-15.448-1.4936-4.6684-4.0839 0.40048-3.1401 6.1448 0.49225 2.9953-0.51953 8.1836-2.3264 11.93-3.5481 7.3563-4.061 11.977-1.512 13.618 2.15 1.3843 0.17203 11.73-2.2546 11.793-1.0022 0.025909-2.7851 1.226-3.962 2.6668-1.7537 2.1471-1.771 3.7601-0.095947 8.9412 1.6676 5.1577 1.6587 7.2181-0.048248 11.191-1.7956 4.1793-1.6126 4.8693 1.2917 4.8693 1.861 0 3.3836 1.4345 3.3836 3.1878 0 2.1937 0.95834 2.197 3.0729 0.011017 1.6902-1.7472 4.1285-2.3944 5.4186-1.4381zm-38.065-7.522c-0.83301-1.4751-3.6127-3.6408-6.1771-4.8129-4.1025-1.875-4.4142-1.5529-2.5947 2.6819 1.1373 2.647 3.917 4.8129 6.1771 4.8129 2.4299 0 3.4903-1.0961 2.5947-2.6819zm20.004-1.1674c0.00177-1.2703 1.1905-2.3096 2.6416-2.3096 2.3894 0 2.3712-0.5705-0.19333-6.0442-1.5575-3.3243-2.4174-8.1302-1.9109-10.68 0.50644-2.5494 0.1766-5.5237-0.733-6.6096-0.90958-1.0859-1.2233-5.2876-0.69711-9.3371 0.54007-4.1562 0.24918-7.3627-0.66791-7.3627-0.89356 0-1.6246-4.327-1.6246-9.6155 0-8.1979-0.35251-9.0504-2.3913-5.7819-1.3153 2.1085-2.3913 6.5266-2.3913 9.8179 0 3.2914-0.79898 8.868-1.7754 12.392-1.4406 5.1991-1.2539 6.972 0.98944 9.3969 2.4482 2.6464 2.0704 4.1825-3.2969 13.406l-6.0618 10.417h4.2752c2.3514 0 4.2752 1.33 4.2752 2.9555 0 1.6256 2.1508 2.6649 4.7795 2.3096 2.6287-0.35516 4.781-1.6852 4.7827-2.9555zm26.979-13.858c-0.069214-9.7388-0.48767-15.975-0.92999-13.858-0.4422 2.1172-1.8204 3.8494-3.0626 3.8494-2.6539 0-3.0021 4.9077-0.5556 7.8284 0.93665 1.1182 1.3178 3.9714 0.84711 6.3407-1.0378 5.2246 0.43842 13.546 2.4033 13.546 0.78302 0 1.367-7.9682 1.2978-17.707zm14.717 11.518c10.047-4.3427 10.917-7.2708 10.917-36.772 0-11.292 0.84021-16 3.8202-21.408 3.282-5.9558 4.8568-6.6321 11.179-4.8007 4.0475 1.1725 7.7513 3.3575 8.2307 4.8559 2.0417 6.3812 3.8718 1.8464 3.8718-9.5938 0-6.7748-0.41962-12.318-0.9325-12.318-2.2284 0-46.195 22.756-47.102 24.378-0.55225 0.98856-1.4993 15.494-2.1046 32.235-0.88916 24.592-0.69635 30.138 1.0042 28.878 1.1575-0.85779 6.1597-3.3123 11.116-5.4545zm-6.62-25.964c0-15.09 0.15418-15.468 7.5726-18.541 5.1782-2.1453 5.1813-2.1392 5.1813 10.375 0 11.48-0.48041 12.909-5.7745 17.182-3.176 2.5633-6.0456 4.6606-6.377 4.6606-0.33136 0-0.60242-6.1542-0.60242-13.676zm7.9712-3.443c0-2.6405-0.72913-3.9305-1.6202-2.8667-0.89111 1.0638-1.2076 3.2243-0.703 4.801 1.3666 4.2713 2.3232 3.4749 2.3232-1.9343zm-56.988 17.569c2.6724-5.162-0.017334-12.772-5.2253-14.784l-4.8957-1.8914 1.0801-21.912c0.59406-12.052 1.2941-22.39 1.5557-22.975 1.4968-3.3453 10.765 4.061 11.454 9.1533 0.58472 4.3188 1.3323 5.0413 2.7929 2.6996 3.2562-5.2199 7.566-0.14243 6.7634 7.968-0.41467 4.1901 0.18137 7.765 1.4515 8.7064 1.2606 0.93442 2.155 6.2176 2.155 12.729 0 7.5507 0.64102 10.71 1.9928 9.8217 1.096-0.72034 1.9928-5.7228 1.9928-11.117 0-5.3937 1.0027-11.018 2.2282-12.498 1.2256-1.4798 2.3017-6.6396 2.3914-11.466 0.13419-7.2237 0.86786-8.7756 4.1486-8.7756 3.3425 0 4.3715 2.3245 6.377 14.405 2.5685 15.472 4.7826 21.989 4.7826 14.075 0-2.6843 0.43542-7.0726 0.96771-9.7516 0.60748-3.0583 0.1095-4.8711-1.3384-4.8711-1.2682 0-3.0759-3.1179-4.017-6.9289-2.9387-11.9-24.254-59.28-26.67-59.28-1.2633 0-6.9469 6.9288-12.63 15.397-9.0554 13.493-10.358 16.73-10.538 26.176-0.11273 5.928-0.7833 23.25-1.4902 38.493-0.70685 15.243-0.92157 28.913-0.47711 30.377 1.0233 3.3702 12.996 0.40524 15.148-3.7513zm78.254-10.369c1.0886-17.754 0.64685-19.493-5.723-22.532l-4.3842-2.0915v18.585c0 18.805 0.53314 20.383 7.3506 21.759 0.98676 0.19904 2.2072-6.7608 2.7565-15.721zm-356.03 5.2792c8.7869-6.6517 10.381-7.0827 11.53-3.1172 3.3918 11.707 7.3053 11.656 18.317-0.23901l10.595-11.445-7.0824-4.0902c-10.259-5.9247-11.689-5.4825-27.661 8.5529-20.474 17.991-23.816 24.053-5.6991 10.339zm260.08-9.4813c0.30042-9.4602 0.33145-17.612 0.069-18.115-0.59531-1.1416-13.532 4.3793-14.459 6.1707-0.76688 1.4814 11.173 28.406 12.796 28.855 0.57648 0.15952 1.2939-7.4501 1.5942-16.91zm105.26-16.088c3.7733-0.84204 4.3525 0.24414 4.9261 9.2384l0.6501 10.193 0.2552-11.171c0.33655-14.738-3.0519-20.65-8.5676-14.948-3.5696 3.6902-3.9073 5.7864-3.6713 22.79l0.2598 18.726 0.9359-16.937c0.85901-15.547 1.2868-17.016 5.2118-17.891zm1.3038 17.891c0-6.7748-0.71747-12.318-1.5942-12.318-0.87677 0-1.5943 5.5431-1.5943 12.318 0 6.7748 0.71753 12.318 1.5943 12.318s1.5942-5.5431 1.5942-12.318zm-171.58-15.782c0.54804-5.2928 0.9964-17.072 0.9964-26.176v-16.552h12.997l-0.52 24.643c-0.28598 13.554-0.071564 24.64 0.47644 24.636 1.9077-0.013855 2.9892-19.476 2.9892-53.793 0-18.997 0.79794-45.992 1.7732-59.991 2.0474-29.386 1.7836-31.094-9.0485-58.606l-7.4862-19.014-6.1703 11.638c-6.0824 11.472-6.1706 11.97-6.1879 34.879-0.032318 42.83-0.086548 43.042-15.281 59.737l-13.398 14.721v19.384c0 10.661-0.45624 25.814-1.0138 33.672-0.84955 11.973-0.59128 14.287 1.5942 14.287 2.1956 0 2.608-3.8671 2.608-24.454 0-13.45 0.5976-25.168 1.328-26.04 0.73041-0.87198 6.5268-0.74359 12.881 0.28543l11.553 1.8709-0.2865 24.938c-0.15759 13.716-0.21466 25.978-0.12686 27.248 0.087708 1.2702 2.2221 2.3096 4.7429 2.3096 3.8581 0 4.7411-1.523 5.5798-9.6234zm0.5978-106.49c-4.258-1.2749-4.3842-1.8827-4.3842-21.125v-19.812h14.494l-0.4714 20.755c-0.50336 22.161-0.81918 22.823-9.6382 20.182zm-0.4757-23.035c0.81003-9.3749 1.7357-11.575 5.3118-12.626 4.1122-1.2087 4.0787-1.2962-0.66449-1.7343-5.4501-0.50342-7.0159 4.6981-6.8138 22.635 0.11856 10.52 0.75137 8.1035 2.1665-8.274zm5.657 3.473c0-7.5489-0.63141-11.746-1.5942-10.596-0.8768 1.0468-1.5942 6.6716-1.5942 12.5 0 5.828 0.71744 10.596 1.5942 10.596 0.87683 0 1.5942-5.6248 1.5942-12.5zm4.7827 122.21c0-7.4099 0.4484-17.803 0.9964-23.096 0.94592-9.1358 0.74399-9.6234-3.9856-9.6234h-4.982v23.096c0 22.583 0.088593 23.096 3.9856 23.096 3.644 0 3.9856-1.1548 3.9856-13.473zm73.335 12.292c0-0.64948-1.7935-1.843-3.9856-2.6525-2.1921-0.80942-3.9856-0.27811-3.9856 1.1808 0 1.4588 1.7935 2.6524 3.9856 2.6524 2.192 0 3.9856-0.53131 3.9856-1.1807zm-126.92-14.798c0.53677-5.1846 0.97598-15.489 0.97598-22.899 0-15.143-0.20041-15.306-12.555-10.188-7.0667 2.9274-7.8845 4.1008-7.5157 10.783 0.56479 10.234 2.4547 13.156 4.3274 6.6928 2.251-7.7696 8.3926-7.1976 7.3258 0.68231-0.45016 3.3251 0.22968 7.7261 1.5107 9.7798 1.4233 2.2817 1.9717 6.4861 1.4099 10.809-0.681 5.2414-0.34073 6.6463 1.3129 5.4206 1.2277-0.90994 2.6714-5.8964 3.2082-11.081zm21.302 10.777c-1.5344-0.7746-4.0454-0.7746-5.5798 0-1.5344 0.77457-0.27893 1.4083 2.79 1.4083s4.3243-0.63376 2.7899-1.4083zm8.9567-21.743c0.6572-14.251 0.44894-22.326-0.57578-22.326-0.93808 0-1.6054 9.8136-1.6054 23.609 0 12.985 0.25906 23.032 0.57574 22.326 0.31674-0.70572 1.0391-11.33 1.6054-23.609zm236.32 12.37c-1.0267-1.9834-18.494 5.9264-18.494 8.3748 0 1.1317 4.3207 0.01886 9.6016-2.4732 5.2808-2.492 9.2822-5.1478 8.8919-5.9016zm-297 1.9707c0.95853 1.8514 3.572 3.2568 5.808 3.1231 2.2359-0.13376 3.1685-0.94205 2.0725-1.7963-3.6601-2.8528-2.0483-6.3654 2.2009-4.7964 3.0968 1.1435 4.0023 0.42783 3.4621-2.7366-0.40231-2.3568-2.2895-4.728-4.1937-5.2692-3.6549-1.0388-4.7732-8.4367-1.5856-10.489 1.032-0.66455 1.3484-2.8587 0.70303-4.8759-1.4179-4.4316-10.551-4.9407-10.551-0.5881 0 1.6937-0.73108 3.0795-1.6246 3.0795-1.8082 0-0.41339-15.135 1.8304-19.863 2.4512-5.165 1.4954-7.8527-2.7924-7.8527-3.5355 0-3.8745 0.71295-2.1962 4.6192 1.6281 3.7893 1.511 4.6192-0.65192 4.6192-1.4501 0-3.0495 2.0786-3.5542 4.6192s-2.1879 4.6192-3.7404 4.6192-3.7158 2.0787-4.8074 4.6193c-1.6662 3.878-1.3778 4.6717 1.7976 4.9468 3.6634 0.31732 3.6445 0.4328-0.60193 3.674-5.2823 4.0319-5.584 7.6575-0.91467 10.994l3.4694 2.4791-3.6299 1.8336c-2.0281 1.0245-3.1658 3.284-2.5782 5.1203 1.3281 4.1508 6.7312 4.2901 8.0375 0.20731 1.7683-5.5267 5.5718-3.5424 4.4108 2.3013-0.99243 4.9955-0.74838 4.975 3.409-0.28671 3.2394-4.1001 4.9598-4.7365 6.2205-2.3013zm20.235 0.8748c6.71e-4 -2.2171 0.71857-3.1746 1.5954-2.1279 0.8768 1.0468 1.5942 0.51749 1.5942-1.1762s-0.77988-4.0105-1.7331-5.1485c-0.95319-1.138-1.3791-4.6841-0.94635-7.8804 1.294-9.5584-0.50467-6.5836-3.0031 4.9668-1.2823 5.928-3.0392 10.778-3.9042 10.778-0.86505 0-1.5729 1.2391-1.5729 2.7537 0 1.5145 1.7931 2.5538 3.9845 2.3096 2.1915-0.24426 3.985-2.2581 3.9856-4.4752zm22.083-22.144l-0.1886-20.017-1.2415 15.397c-1.8549 23.004-1.825 34.929 0.073364 29.255 0.85001-2.5406 1.4605-13.627 1.3568-24.636zm61.217 22.552c1.805-2.052 1.4349-28.711-0.39856-28.711-0.87677 0-1.6266-2.4251-1.6663-5.389-0.039581-2.964-1.7194-11.472-3.7328-18.906l-3.6609-13.517-1.0498 23.99c-0.57745 13.195-1.0499 29.434-1.0499 36.088 0 12.036 0.026398 12.087 5.1812 9.9514 2.8497-1.1806 5.7193-2.7583 6.377-3.5059zm52.052-14.084c0.087372-2.964-0.55853-5.389-1.4353-5.389-0.8768 0-1.5227 5.8894-1.4353 13.088 0.13501 11.118 0.35104 11.929 1.4353 5.3891 0.70203-4.2342 1.3479-10.124 1.4353-13.088zm-99.688 9.2384c0.52872-3.8108 0.9711-11.952 0.98309-18.092 0.019531-10.035-0.47827-11.356-4.9247-13.074-2.7205-1.051-5.5902-1.1425-6.3769-0.20316-0.78677 0.93921-1.4305 9.146-1.4305 18.237 0 13.153 0.56992 16.817 2.79 17.938 5.9488 3.0028 8.0307 1.8861 8.9591-4.8061zm-80.667-3.8493c-0.38248-8.9266-0.19382-8.8202-7.0938-4.0006-6.1656 4.3066-6.7639 7.6448-1.7075 9.526 8.1616 3.0366 9.1417 2.4212 8.8013-5.5254zm155.01 3.4998l8.7683-3.9379 0.4818-15.948c0.26508-8.7715 0.26508-15.946 0-15.944-5.395 0.047119-27.716 10.206-28.646 13.038-0.70392 2.1422-1.2909 8.5488-1.3043 14.237-0.021729 9.2075 0.37058 10.151 3.5759 8.5967 1.9801-0.95996 4.6704-0.43857 5.9784 1.1587s2.3781 2.8667 2.3781 2.8209c0-0.045868 3.9457-1.8554 8.7683-4.0212zm146.48-26.864c0.15894-11.902-0.8291-16.872-6.276-31.565-3.5557-9.5911-7.2305-17.438-8.1664-17.438-1.1032 0-1.024 1.5774 0.22498 4.4843 1.0596 2.4663 1.4861 5.8612 0.94769 7.5442-0.53845 1.6829 0.47583 4.5639 2.254 6.4022 4.1601 4.3006 4.1177 10.818-0.10773 16.535-2.3503 3.18-3.0331 6.3928-2.303 10.836 0.5708 3.474 0.21417 9.289-0.79242 12.922-2.2166 8.0003-0.56213 12.081 6.9052 17.032 4.8009 3.1829 5.1721 2.9027 6.118-4.6192 0.55389-4.4042 1.092-14.364 1.1957-22.134zm-39.269 23.697c1.5344-2.25 2.7899-4.8158 2.7899-5.7019 0-3.345-8.8535-4.7264-10.761-1.6791-3.5039 5.5976-2.1379 9.0912 4.3842 11.213 0.43835 0.14261 2.0526-1.5815 3.587-3.8316zm21.573-4.8564c-0.063354-4.3029 0.396-10.935 1.0208-14.738 0.8476-5.1583 0.50159-6.914-1.3627-6.914-1.3743 0-2.4988-1.3857-2.4988-3.0794 0-1.6938-0.64819-3.0795-1.4404-3.0795-1.2795 0-3.3633 29.824-2.3743 33.984 0.21564 0.90732 1.8272 1.6497 3.5812 1.6497 2.3828 0 3.1601-1.9783 3.0741-7.8235zm34.073 4.2298c0.74127-0.88486 1.3478-9.067 1.3478-18.183 0-9.1155 0.60644-17.298 1.3477-18.183 0.74127-0.88489 4.149-2.4757 7.5726-3.5351l6.2249-1.9261-0.558 17.607-0.558 17.607 7.732-2.2355c4.2527-1.2295 8.2701-2.8751 8.9278-3.657 0.65759-0.78186 1.1956-11.467 1.1956-23.746v-22.324l-23.515 9.7019-23.515 9.7019-0.4728 22.459-0.4727 22.459 6.6976-2.0687c3.6837-1.1378 7.3041-2.7928 8.0454-3.6778zm22.073-30.171c0-10.194 0.63635-14.187 2.2609-14.187 1.2436 0 3.3958-0.84119 4.7827-1.8692 2.0746-1.5378 2.5217 0.6463 2.5217 12.318 0 10.194-0.63635 14.187-2.261 14.187-1.2435 0-3.3957 0.8411-4.7826 1.8692-2.0746 1.5378-2.5217-0.64627-2.5217-12.318zm7.3044 4.2897c0.36676 0 0.66681-3.4644 0.66681-7.6986 0-9.6717-4.0565-10.253-5.3722-0.7699-1.4738 10.623-1.2181 12.365 1.517 10.338 1.387-1.028 2.8218-1.8692 3.1884-1.8692zm-215.1 14.569c-0.43671-2.0849-0.76746 0.36655-0.73496 5.4477 0.032501 5.0811 0.3898 6.787 0.79401 3.7907 0.4042-2.9962 0.37762-7.1536-0.059052-9.2384zm196.64-6.1281c0-7.4004-0.58057-11.524-1.3834-9.8265-1.805 3.8171-3.5169 21.688-2.3024 24.034 2.0845 4.0262 3.6858-2.1468 3.6858-14.208zm-327.62-20.776c6.1378-3.6484 12.236-7.4527 13.551-8.454 1.3153-1.0012 4.5436-2.0972 7.174-2.4355 2.6305-0.33829 9.7923-3.6202 15.915-7.2932 6.1228-3.673 16.311-8.7444 22.641-11.27 12.165-4.8537 26.88-18.389 22.761-20.936-1.2815-0.79263-7.9472-2.1489-14.812-3.0139-10.388-1.3089-12.336-0.83441-11.608 2.8275 0.4808 2.4201 0.17929 4.4003-0.66998 4.4003-0.8493 0-1.5442-6.8945-1.5442-15.321 0-15.203 0.03183-15.298 4.1194-12.296 2.2656 1.6639 4.782 2.2342 5.592 1.2672 0.80997-0.96701 2.5945 0.4089 3.9657 3.0574 1.3711 2.6486 3.6291 4.8156 5.0175 4.8156 2.183 0 2.1341-0.83344-0.36096-6.1589-1.7906-3.822-2.1512-6.1589-0.9501-6.1589 1.0644 0 1.492-1.3858 0.9501-3.0795-0.54187-1.6937-2.6941-3.0794-4.7827-3.0794-4.0861 0-7.3616-6.5514-4.2706-8.5417 1.1279-0.72621 1.4888-4.1696 0.90652-8.6503-0.73315-5.6429-0.32404-7.4438 1.6911-7.4438 1.462 0 2.2077-1.4084 1.6569-3.1297-0.55072-1.7213-1.5241-2.5057-2.163-1.7429-2.2425 2.6771-5.4567-3.7588-4.438-8.8866 0.74005-3.7253 2.0087-4.5372 4.604-2.9461 3.176 1.9471 3.3372 1.6258 1.4214-2.8332-1.1885-2.7662-2.6519-4.4433-3.2521-3.7269-0.60013 0.71645-2.0456 0.16325-3.2121-1.2294-2.5164-3.0042-0.90744-9.3795 2.3673-9.3795 1.7031 0 1.4726-1.5929-0.89124-6.1589-3.5843-6.9236-4.2113-17.162-1.1957-19.526 1.5005-1.176 1.402-2.3797-0.39853-4.872-3.7077-5.132-7.223-2.4018-6.7943 5.277 0.23364 4.1862-0.49661 6.8026-1.8987 6.8026-3.3473 0-4.62 5.7664-2.4087 10.913 1.5737 3.6628 1.3627 4.4843-1.1523 4.4843-1.6934 0-4.4715 2.0346-6.1736 4.5213-3.0251 4.4196-3.0161 4.5234 0.39832 4.6192 1.9211 0.053864 3.9363 1.4837 4.4782 3.1774 0.54187 1.6937-0.25601 3.0795-1.7732 3.0795-3.2788 0-8.5894 8.6307-8.5894 13.959 0 2.0714 1.6142 5.9413 3.587 8.5996l3.5871 4.8333-4.189 0.1615c-2.3039 0.088867-5.1302 2.3522-6.2806 5.0298-1.8616 4.3327-1.4647 4.6411 3.6078 2.8029 7.4788-2.7101 9.0858 2.6703 2.9043 9.7237-6.144 7.0106-6.1564 10.686-0.028107 8.3187 3.4485-1.3322 4.7962-0.66641 4.8312 2.3867 0.032959 2.8811 0.56775 2.512 1.6735-1.1548 0.89371-2.964 2.7327-5.3891 4.0867-5.3891 2.05 0 2.2732 2.704 1.3348 16.167-1.2306 17.653-1.955 20.79-3.6431 15.772-1.6197-4.8141-77.994 43.885-92.368 58.897-6.7454 7.045-10.957 13.2-10.129 14.8 0.78024 1.5072 5.2592 3.6796 9.9532 4.8275 7.9388 1.9414 9.4248 1.1841 21.288-10.847 7.0146-7.114 17.776-15.92 23.914-19.568zm245.63 16.872c12.212-6.3107 23.818-12.153 25.791-12.983 1.9729-0.83026 3.5871-2.5757 3.5871-3.879 0-1.3032-4.5465-11.823-10.103-23.378l-10.103-21.008-24.572 3.9715c-13.514 2.1844-27.291 4.8977-30.615 6.0298l-6.0441 2.0582 8.1635 18.477c4.49 10.162 10.397 24.412 13.128 31.666 2.7301 7.2539 5.774 12.588 6.7642 11.854 0.99017-0.73395 11.792-6.4977 24.004-12.808zm75.072 3.9321c-0.44226-2.1172-0.80408-0.38495-0.80408 3.8493 0 4.2343 0.36182 5.9665 0.80408 3.8493 0.44232-2.1172 0.44232-5.5815 0-7.6986zm48.633-11.69c0.51239-21.004 0.40186-21.751-3.4562-23.351-2.1921-0.90894-5.9344-2.8356-8.3165-4.2815-4.0038-2.4303-4.4039-1.8775-5.2971 7.3189-0.53143 5.4712-0.73462 15.315-0.45184 21.874 0.45239 10.488 1.1871 12.393 6.0942 15.798 10.448 7.2486 10.842 6.6508 11.427-17.358zm6.1091 0.3911v-21.307l7.5524-3.1114c4.1537-1.7113 7.9126-2.4155 8.3529-1.5649 0.44031 0.85049 0.6955 10.799 0.56702 22.109l-0.2335 20.562 1.6863-22.648 1.6865-22.648-5.909-10.457c-7.158-12.667-9.3696-12.995-13.392-1.988-3.9186 10.724-5.9198 62.359-2.4168 62.359 1.5418 0 2.1055-5.7058 2.1055-21.307zm4.7583-4.612c0.032104-19.924-0.9632-17.156-2.0464 5.6908-0.54364 11.468-0.32861 16.625 0.578 13.858 0.79419-2.4243 1.455-11.221 1.4684-19.548zm6.0969 3.0348c0.36987-11.042-0.027161-14.373-1.5942-13.376-1.2305 0.78287-2.2891 7.3621-2.5795 16.032-0.36987 11.042 0.027161 14.373 1.5942 13.376 1.2305-0.78293 2.2892-7.3621 2.5796-16.032zm14.653 3.0493c0-4.1343-0.6861-8.336-1.5247-9.3371-0.83844-1.001-1.1204-3.8544-0.62653-6.3407 0.49396-2.4864 0.10388-4.5206-0.8667-4.5206-1.0288 0-1.7648 5.7793-1.7648 13.858 0 10.265 0.62 13.858 2.3914 13.858 1.4725 0 2.3914-2.8882 2.3914-7.5169zm-360.06-5.248c7.6696-3.6334 14.321-8.5006 14.781-10.816 0.63477-3.1952-0.2103-3.7254-3.5053-2.1992-5.1576 2.3889-4.1064-0.29657 4.0133-10.254l5.9931-7.3492-5.5798 1.9122c-3.0689 1.0518-11.14 4.7288-17.935 8.1713-9.734 4.9311-12.355 7.4557-12.355 11.899 0 3.102-0.71741 6.4963-1.5942 7.5431-2.2111 2.6396-1.9998 7.6986 0.32159 7.6986 1.0537 0 8.191-2.9727 15.861-6.606zm107.28 0.1066c13.106-3.5908 15.02-5.0433 23.8-18.062 5.2511-7.7863 9.7573-15.492 10.014-17.124 0.25653-1.632-1.5218-7.5993-3.9516-13.261l-4.4179-10.294-27.53 7.6821c-15.142 4.2251-27.985 8.5595-28.54 9.6321-0.55521 1.0725 1.6618 12.378 4.9268 25.124 4.5736 17.854 6.5687 22.833 8.6915 21.69 1.5154-0.81595 9.1689-3.2408 17.008-5.3885zm135.24-9.6678c-0.70886-5.6797-0.48077-6.2348 1.2652-3.0795 2.82 5.0962 4.6807 4.8727 4.6807-0.56238 0-2.4264-1.4348-5.2914-3.1885-6.3665s-3.1884-3.0739-3.1884-4.4418c0-1.3678-0.44836-6.8174-0.9964-12.11-0.83069-8.0232-0.49939-9.639 1.9928-9.717 2.7939-0.087524 2.807-0.29871 0.19922-3.2325-3.409-3.8354-3.7067-15.151-0.3985-15.151 3.1871 0 3.0558-5.0074-0.1944-7.4167-1.9157-1.42-2.3392-4.2981-1.6341-11.108 1.2378-11.954-0.28131-11.596-6.7186 1.5872-4.4586 9.1309-4.7966 10.778-2.2108 10.778 1.6788 0 3.0522 1.8885 3.0522 4.1967 0 2.5534-1.1444 3.6186-2.9227 2.7203-1.6102-0.81338-2.9228 0.14941-2.9228 2.144 0 1.9912 0.71741 2.764 1.5942 1.7172 0.87677-1.0468 1.5942-0.43567 1.5942 1.358s-0.71741 3.2612-1.5942 3.2612c-0.87683 0-1.5942 1.3857-1.5942 3.0795 0 1.6937 1.1185 3.0795 2.4855 3.0795 1.3669 0 2.042 1.3857 1.5001 3.0795-1.5223 4.7577-5.5798 3.6381-5.5798-1.5397 0-2.5406-0.71747-4.6192-1.5942-4.6192-4.1632 0-1.1607 17.253 5.7031 32.772 7.7506 17.524 12.156 21.475 10.67 9.5705zm46.2-13.365c11.18-4.5903 20.326-9.2509 20.326-10.357 0-4.2212-9.9297-27.859-11.696-27.843-1.0202 0.009521-12.616 2.7732-25.768 6.1417-13.152 3.3684-24.093 6.1322-24.312 6.1417-2.9966 0.12964 9.1482 31.07 13.472 34.321 1.5779 1.1866 3.9452 1.6587 5.2604 1.049 1.3153-0.60959 11.538-4.8641 22.718-9.4544zm42.889-13.317l4.2288-11.82-12.997-5.144c-7.1483-2.8292-14.603-5.7943-16.565-6.5891-3.4558-1.3996-3.4172-0.98294 1.2253 13.232 3.5497 10.869 6.3371 15.614 10.742 18.29 8.5174 5.1726 8.705 5.0607 13.366-7.9682zm-164.21-11.117c6.1483-1.623 7.5342-3.2 8.1334-9.2547 0.40112-4.0532-0.13519-7.9339-1.2061-8.7277-1.0606-0.78607-2.3991-5.9767-2.9746-11.534-0.57544-5.5579-1.7792-15.363-2.6751-21.79l-1.6289-11.685-6.2881 7.6677c-3.4585 4.2172-6.9204 7.6677-7.693 7.6677-0.77261 0-1.0812 3.2702-0.68567 7.2672 0.55679 5.626-0.12317 7.6953-3.011 9.163l-3.7302 1.8958 3.6137 4.9053c3.9083 5.3051 3.424 10.791-0.91785 10.4-2.0078-0.18106-2.1265-0.67865-0.46503-1.9496 1.6922-1.2945 1.3435-2.9993-1.4445-7.0615-4.0328-5.8758-3.412-17.396 0.77029-14.296 4.9155 3.6435 3.7752-3.959-1.5467-10.312-6.6468-7.935-7.3604-15.409-1.4713-15.409 4.2937 0 4.788-7.3958 0.53366-7.9865-1.2434-0.17262-2.793-0.52495-3.4435-0.78291-0.65051-0.25798-0.035126-6.0093 1.3676-12.781 2.7972-13.504 2.1109-21.562-1.8364-21.562-1.7906 0-2.2589 1.7642-1.5744 5.9304 0.55481 3.3765 0.086151 7.0234-1.0883 8.4686-1.1345 1.396-3.0647 5.0038-4.2894 8.0175-1.9524 4.8043-1.7904 6.3766 1.3156 12.763 2.2694 4.6662 2.9264 8.0189 1.8282 9.3299-0.9903 1.1822-1.6917 12.047-1.6611 25.73 0.053955 24.086 2.1503 34.137 7.9735 38.228 2.5138 1.766 12.189 0.84204 24.095-2.301zm-60.818-8.6228l24.711-6.9106 1.4486-20.705c0.79681-11.388 1.124-21.333 0.72702-22.099-0.39694-0.76672-12.886 1.742-27.754 5.5749l-27.032 6.969-0.7971 22.169c-0.66055 18.373-0.3876 22.147 1.5943 22.041 1.3152-0.070557 13.511-3.238 27.102-7.0388zm-18.575-19.741c0.5423-12.188 1.2694-14.918 4.4306-16.63 8.6208-4.6697 9.3617-3.6878 9.3617 12.405 0 16.35-1.2725 18.806-9.7423 18.806-4.632 0-4.6896-0.20718-4.05-14.582zm11.002 4.3517c-0.21921-1.1484-0.75726-2.088-1.1956-2.088h-3.9856c-1.7537 0-3.1885 1.9588-3.1885 4.3529 0 3.2447 1.1162 3.7763 4.3841 2.088 2.4113-1.2456 4.2048-3.2044 3.9856-4.3529zm1.1957-13.42c0-6.238-8.5917-4.0489-9.2188 2.3489-0.37305 3.8063 0.58447 4.5732 4.3705 3.4998 2.8504-0.80814 4.8483-3.2183 4.8483-5.8488zm16.611 1.4163c1.1611-14.026 2.9099-17.679 8.4985-17.752 3.1781-0.041763 3.587 1.4919 3.587 13.451 0 11.395-0.5589 13.788-3.587 15.355-8.5322 4.4168-9.658 2.9523-8.4985-11.054zm8.8971 2.5056c0-2.8148-1.1162-3.7671-3.1885-2.7203-1.7537 0.88586-3.1884 2.8348-3.1884 4.3309s1.4348 2.7203 3.1884 2.7203c1.7537 0 3.1885-1.9489 3.1885-4.3309zm0-11.066c0-1.6937-1.4348-3.0795-3.1885-3.0795s-3.1884 1.3858-3.1884 3.0795 1.4348 3.0795 3.1884 3.0795c1.7537 0 3.1885-1.3858 3.1885-3.0795zm75.328 38.23c10.111-1.8734 10.761-2.4547 10.761-9.6212v-7.6274l-15.544 2.1964c-8.549 1.208-16.082 2.8048-16.739 3.5486-0.65759 0.74374-1.1956 4.8567-1.1956 9.1399 0 7.251 0.41193 7.6695 5.9784 6.0726 3.288-0.94318 10.821-2.6122 16.739-3.7089zm17.138-2.8161c0-4.7903-0.90338-7.6987-2.3914-7.6987-2.8701 0-3.1383 6.5638-0.47821 11.702 2.6388 5.0971 2.8696 4.7752 2.8696-4.0033zm4.4443-1.9608c-0.39795-2.3064-1.1207-0.91043-1.6844 3.2536-0.69342 5.1222-0.4859 6.3246 0.69708 4.0394 0.92639-1.7895 1.3707-5.0714 0.9873-7.293zm34.94 1.5962c4.0729-2.1095 4.598-7.5844 6.1099-63.704l0.9794-36.353-8.4904 0.9389-8.4903 0.9389-0.9354 29.255c-0.51446 16.09-1.4481 33.583-2.075 38.873-0.86304 7.2831-0.53918 10.063 1.3339 11.451 3.7468 2.7773 3.018 14.121-1.1133 17.328-3.0488 2.3671-2.6302 2.808 2.7899 2.9382 3.5073 0.084198 7.9584-0.66592 9.8914-1.667zm75.4-1.1752c0-1.6938 1.076-3.0795 2.3913-3.0795s2.3914-1.3857 2.3914-3.0794-1.1432-3.0795-2.5405-3.0795c-1.3974 0-2.9158-2.7716-3.3744-6.1589-0.45868-3.3874-1.4676-6.1589-2.2422-6.1589-0.77454 0-1.4083 2.7715-1.4083 6.1589s-0.71741 6.1589-1.5943 6.1589c-2.2946 0-1.9676 8.4341 0.39862 10.278 3.3828 2.6365 5.9784 2.185 5.9784-1.04zm-105.67-17.166c-0.19019-0.29593-1.7806 0.57636-3.5343 1.9384-1.7537 1.3621-2.2917 2.5739-1.1957 2.6929 1.096 0.11911 2.0544 3.3345 2.1298 7.1453 0.11462 5.7949 0.36688 5.4423 1.5415-2.1548 0.77252-4.996 1.2489-9.3258 1.0587-9.6218zm-183.9-5.0223c1.4168-26.183 1.2754-33.918-0.57974-31.703-3.8872 4.6406-0.80112-4.4825 7.0315-20.786l8.5066-17.707h19.222l1.1102-18.477c0.92252-15.354 1.6226-18.477 4.1421-18.477 2.6153 0 3.032 2.3469 3.032 17.078v17.078l10.761-0.9106 10.761-0.9106 1.9446-63.129c1.0695-34.721 2.1457-66.551 2.3914-70.732 0.41144-7.0032-0.23297-7.7963-8.1668-10.051-4.7374-1.3461-8.9552-1.7875-9.3727-0.9809-1.0831 2.0922-3.3482 46.171-3.45 67.136l-0.086 17.707h-13.246l1.01-38.493c0.55548-21.171 0.71289-38.493 0.34979-38.493-0.36307 0-2.623 1.4415-5.0219 3.2033-3.3246 2.4416-5.8608 2.0448-10.665-1.6686-3.467-2.6796-6.5442-4.4072-6.8382-3.8391-0.29407 0.56805-1.0296 17.948-1.6344 38.622l-1.0998 37.59-4.9421 0.3546c-2.7181 0.19505-6.128 0.13069-7.5776-0.14303-2.2139-0.41806-2.8372 4.3285-3.8959 29.67-0.69321 16.592-1.3007 50.746-1.35 75.898l-0.0897 45.73-6.377-1.7504c-3.5074-0.96271-8.4434-2.683-10.969-3.8229-3.524-1.5904-4.4224-1.0757-3.8619 2.2127 0.68829 4.0391 7.3803 6.4384 22.186 7.9546l5.761 0.5899 1.0145-18.749zm270.38 14.359c-1.4346-3.339-1.5399-5.7171-0.35468-8.0066 1.1853-2.2896 0.78638-4.9948-1.343-9.1079-3.5529-6.8628-4.6233-7.3065-4.6233-1.9162 0 2.1642-1.503 6.4206-3.34 9.4589-3.9199 6.4833-3.4122 8.0496 3.6576 11.284 7.8218 3.5783 8.2266 3.4628 6.0033-1.712zm-98.807-11.84c19.384-3.9988 20.275-5.8524 12.563-26.111l-5.0841-13.354-25.119 1.0817c-13.815 0.59492-25.652 2.1125-26.304 3.3723-1.0634 2.055 1.8281 34.328 3.5889 40.056 0.72253 2.3507 10.316 1.1512 40.356-5.0459zm25.613-20.364c2.132 0 2.8328-4.5032 3.6668-23.561 0.56708-12.958 1.031-35.131 1.031-49.272v-25.711h-7.08c-3.8939 0-7.3937 1.0393-7.7771 2.3096-0.38342 1.2703-1.209 13.146-1.8347 26.39-1.0878 23.024-0.9856 24.157 2.3287 25.831 3.1874 1.6101 3.442 3.5135 3.1642 23.652-0.38483 27.892-0.33722 28.479 1.9523 24.056 1.0521-2.0324 3.0991-3.6954 4.5487-3.6954zm-87.904-3.8493c1.9457-9.9442 0.55743-12.224-3.9614-6.5044-3.6873 4.6668-3.7562 5.2312-1.1126 9.1062 3.6589 5.3632 3.4995 5.4449 5.0739-2.6018zm-43.307-4.2276c13.372-2.9871 24.312-6.4383 24.312-7.6695s-4.4838-10.041-9.964-19.578l-9.964-17.34-14.348 1.7642c-7.8914 0.97037-19.856 2.5619-26.589 3.5369l-12.241 1.7727 5.4417 14.631c7.7492 20.835 13.556 31.287 16.496 29.693 1.3989-0.75858 13.484-3.8232 26.855-6.8103zm122.06-15.789l0.9454-16.167h-6.1849c-8.3959 0-8.9818 7.5401-1.6749 21.556 3.0903 5.928 5.6975 10.778 5.7939 10.778 0.096313 0 0.60065-7.2753 1.1205-16.167zm-65.862 6.9288c1.3926-3.2411 5.3748-4.7279 13.348-4.9835 6.2497-0.20041 13.515-1.2668 16.146-2.3698 3.938-1.6513 2.5029-2.7259-8.1263-6.0847-12.8-4.0448-12.981-4.0093-21.37 4.2029-6.316 6.1824-7.8935 8.9767-6.2217 11.021 3.088 3.7764 3.9403 3.5319 6.2252-1.7861zm-14.833-8.4685c0.025543-2.1172 0.59555-26.368 1.2668-53.891 0.67123-27.523 0.8978-50.041 0.50342-50.041s-4.1331 2.2483-8.3082 4.9963c-6.0483 3.9808-8.4161 4.2703-11.65 1.4245-2.2322-1.9646-4.3498-3.0091-4.7059-2.3212-0.35608 0.68782-1.2407 19.794-1.9658 42.458-1.1151 34.857-0.94788 42.033 1.0851 46.564 2.2632 5.0436 2.6155 4.9138 6.0407-2.2253 2.0005-4.1697 3.8692-10.737 4.1525-14.594 0.69916-9.5182 6.2316-9.2072 8.7347 0.491 1.5455 5.988 1.4988 9.529-0.23099 17.526-2.2279 10.3-2.0944 10.726 4.101 13.106 0.51148 0.19647 0.95081-1.375 0.97626-3.4921zm15.264-6.9288l10.475-9.2384 0.9055-21.556c0.49799-11.856 1.0933-29.802 1.3228-39.881l0.4174-18.324-9.5654-3.8673c-13.459-5.4413-13.264-5.5643-14.196 8.9518-1.8609 28.979-2.807 95.372-1.3433 94.28 0.8302-0.61938 6.2231-5.2834 11.984-10.364zm0.9809-58.35c-0.39288-0.75882-0.43698-6.9947-0.098206-13.858 0.61206-12.398 2.2501-14.851 6.4697-9.6884 3.3121 4.052 0.96179 24.926-2.8066 24.926-1.5678 0-3.1719-0.62091-3.5648-1.3798zm5.3558-12.478c0.41901-4.2343 0.14392-7.6987-0.61133-7.6987-0.75519 0-1.3731 1.2724-1.3731 2.8276s-0.43542 5.0196-0.96777 7.6987c-0.53217 2.6791-0.25702 4.8711 0.61133 4.8711 0.86847 0 1.9218-3.4644 2.3409-7.6987zm19.769 22.326c0.76746-25.829 1.3189-47.327 1.2253-47.772-0.093445-0.44566-2.6827 1.2178-5.754 3.6965-5.5399 4.4712-5.5922 4.6938-6.6217 28.22-0.5708 13.042-1.0378 31.723-1.0378 41.512 0 18.593 0.10107 18.828 8.9834 20.886 1.2272 0.28444 2.2583-14.691 3.2047-46.543zm-69.385 21.556c0.76294-51.109 2.3-77.224 4.5874-77.938 1.3153-0.41054 4.2657-2.1631 6.5565-3.8946 4.0337-3.0488 4.1911-4.1515 4.9881-34.95 0.45264-17.491 0.56152-32.359 0.24191-33.041-0.73077-1.5581-21.732 9.0471-23.328 11.78-1.4043 2.4052-3.7784 48.751-5.1785 101.09-0.97549 36.468-0.90164 37.724 2.2193 37.724 1.7757 0 3.9963 2.7715 4.9348 6.159 2.7523 9.9336 4.7682 7.1276 4.978-6.9288zm-38.616-15.397c0.087372-4.6577-0.55853-8.4686-1.4353-8.4686-0.88058 0-1.5231 7.2374-1.4353 16.167 0.125 12.72 0.43103 14.526 1.4353 8.4686 0.70196-4.2343 1.3479-11.51 1.4353-16.167zm63.043-56.74c5.2675-4.8521 6.4832-4.8231 20.469 0.48859 11.161 4.239 15.642 4.809 17.969 2.2861 3.8048-4.1248 3.1672-4.6167-14.595-11.262-16.34-6.1133-22.06-6.0712-31.84 0.23428-9.534 6.1467-9.9862 6.8207-7.0133 10.452 3.531 4.3134 8.7749 3.5452 15.011-2.1993zm-74.838-64.558c3.6199-2.6833-0.028046-7.1586-5.8876-7.223-5.4269-0.059635-7.3184 5.2264-2.5091 7.012 1.9859 0.7373 4.0901 1.5292 4.676 1.7599 0.58591 0.23068 2.2602-0.46637 3.7207-1.5489zm53.404-12.987l10.362-5.6926-8.4482-3.5338c-10.808-4.5207-9.803-4.6795-20.587 3.2555-8.9912 6.616-9.1046 6.8424-4.444 8.874 8.1099 3.5352 12.37 3.0001 23.116-2.9031zm-218.43 612.44c-3.0772-1.0654-12.469-7.0821-20.871-13.37-8.4016-6.2881-19.515-12.627-24.696-14.087l-9.4198-2.6544 8.3547-0.3754c6.2528-0.28101 12.67 2.7956 25.508 12.23 9.4342 6.9327 20.023 13.559 23.53 14.724 3.5073 1.1655 5.6595 2.8734 4.7827 3.7949-0.87686 0.92169-4.112 0.80402-7.1892-0.26141zm259.02-8.4816c2.2237-6.3212 4.0431-12.557 4.0431-13.858 0-1.3005-3.5871-2.3646-7.9712-2.3646-4.9035 0-7.9712-1.351-7.9712-3.5102 0-3.4631 16.817-1.9857 18.695 1.6423 1.1815 2.2822-7.3591 29.583-9.2545 29.583-0.87152 0 0.2348-5.1719 2.4585-11.493zm-342.7-12.326c2.1767-4.1757 15.381-10.109 21.83-9.8098 4.0628 0.1886 3.0778 1.1792-4.293 4.3175-5.261 2.24-11.718 5.0803-14.348 6.3118-3.169 1.4836-4.2448 1.207-3.1885-0.81946zm326.02-6.9752c0-1.6937 0.71741-3.0794 1.5943-3.0794 0.87677 0 1.5942 1.3857 1.5942 3.0794s-0.71741 3.0795-1.5942 3.0795c-0.87686 0-1.5943-1.3859-1.5943-3.0795zm24.711-15.82c-3.5073-1.3726-13.372-1.6604-21.921-0.63983-11.746 1.4023-15.544 0.93164-15.544-1.9263 0-2.8618 5.501-3.5231 22.61-2.7182l22.61 1.0637 4.5277-14.886c4.3829-14.409 4.4246-14.938 1.3037-16.514-1.7733-0.89581-3.2241-2.8093-3.2241-4.2524 0-1.4429 1.2554-1.8413 2.7899-0.88501 1.5344 0.95612 3.7222 2.2812 4.8615 2.9446 1.5122 0.88031 0.9071 5.1663-2.2408 15.872-6.6105 22.48-8.3201 24.859-15.773 21.942zm-42.247-5.7366c0-1.6937 0.31632-3.0794 0.703-3.0794 0.38669 0 1.1464 1.3857 1.6884 3.0794 0.54187 1.6937 0.22556 3.0795-0.70306 3.0795-0.92856 0-1.6883-1.3858-1.6883-3.0795zm90.871-54.91c0-6.6936 20.916-46.687 28.215-53.95 6.6954-6.6625 19.983-23.873 22.003-28.499 1.7573-4.0243 21.303-25.56 37.464-41.28 16.863-16.402 44.565-29.231 46.959-21.748 0.58844 1.8394 0.12781 3.8548-1.0239 4.4786-32.548 17.628-57.946 38.578-76.702 63.268-7.0147 9.2338-13.004 15.116-14.083 13.829-1.1048-1.3188-1.4527-0.91656-0.84619 0.97897 1.3277 4.1496-6.4343 14.067-8.7996 11.243-1.002-1.1962-1.3574-0.77399-0.80408 0.95538 0.54541 1.7045-3.4689 10.093-8.9205 18.641-5.4517 8.5478-12.261 20.532-15.132 26.632-5.7851 12.291-8.331 13.957-8.331 5.4517zm6.377-5.3215c0-0.74689-0.71741-1.358-1.5942-1.358-0.87683 0-1.5942 1.4676-1.5942 3.2612 0 1.7937 0.71741 2.4047 1.5942 1.358 0.87683-1.0469 1.5942-2.5144 1.5942-3.2613zm16.151-30.465c4.708-8.2171 6.9606-13.311 5.0059-11.319-1.9547 1.9914-7.6939 11.342-12.754 20.778-10.488 19.559-5.1293 13.017 7.748-9.459zm38.053-52.817c0-2.6615-5.8207 4.5498-8.1023 10.038-1.6036 3.8576-0.75513 3.3982 2.9211-1.5813 2.8497-3.86 5.1812-7.6654 5.1812-8.4565zm56.649-49.876c-1.5308-2.957-37.518 24.185-37.518 28.296 0 0.6022 8.55-5.3088 19-13.136 10.45-7.827 18.783-14.649 18.519-15.161zm-107.66 79.449c0-1.6938 0.71753-3.0795 1.5943-3.0795s1.5942 1.3857 1.5942 3.0795c0 1.6937-0.71741 3.0795-1.5942 3.0795-0.87677 0-1.5943-1.3858-1.5943-3.0795zm141.29-90.961c-1.0324-5.1968 0.083374-6.2747 8.9694-8.6657 5.024-1.3519 5.9784-0.71372 5.9784 3.9975 0 9.2167-13.224 13.346-14.948 4.6682z"/>
</svg>
