<?xml version="1.0" encoding="UTF-8"?>
<svg viewBox="0 0 226 353" xmlns="http://www.w3.org/2000/svg">
 <g stroke-width="0">
  <g fill-rule="evenodd">
   <path d="m19.25 144.5c0.5-3 2.0833-4.25 4.75-3.75s4.1667 0.91667 4.5 1.25c0.33333 0.33333 1.1667 0.33333 2.5 0s2.6667-0.66667 4-1 2.0833-0.41667 2.25-0.25c0.16667 0.16667 0.33333 1.5833 0.5 4.25s1.25 4.1667 3.25 4.5c2 0.33333 3 1 3 2s-0.83333 1.25-2.5 0.75l-2.5-0.75-1-0.25c-0.66667-0.16667-1.1667-1.5833-1.5-4.25-0.33333-2.6667-1-3.75-2-3.25s-2.8333 0.58333-5.5 0.25-4.6667-0.75-6-1.25l-2-0.75-0.75 4.5c-0.5 3-1.3333 5.0833-2.5 6.25l-1.75 1.75 1 0.5c0.66667 0.33333 2.0833 0.75 4.25 1.25s3.1667 1.75 3 3.75c-0.16667 2 0.25 2.75 1.25 2.25s1.75-1.1667 2.25-2c0.5-0.83333 1-1.6667 1.5-2.5 0.5-0.83333 1.0833-1.3333 1.75-1.5 0.66667-0.16667 0.75 0.25 0.25 1.25s-1.4167 2.5-2.75 4.5-2.25 3.0833-2.75 3.25c-0.5 0.16667-0.83333 0.16667-1 0s-0.33333 0.083328-0.5 0.75-0.66667 0.83333-1.5 0.5-1.1667-1.6667-1-4c0.16667-2.3333-0.91667-3.75-3.25-4.25s-3.8333-0.83333-4.5-1c-0.66667-0.16667-0.75-0.91667-0.25-2.25s1.4167-2.6667 2.75-4 2.25-3.5 2.75-6.5z"/>
   <path d="m37.5 154.5l4.5-0.5-0.5 1.25c-0.33333 0.83333-1.8333 1.3333-4.5 1.5-2.6667 0.16667-4-0.083328-4-0.75v-1l4.5-0.5z"/>
   <path d="m40.5 187.75c1.6667-0.16667 4.1667-0.33333 7.5-0.5s4.8333 0.58333 4.5 2.25c-0.33333 1.6667 0.5 2.8333 2.5 3.5 2 0.66667 2.9167 1.5 2.75 2.5l-0.25 1.5-1.25 0.75c-0.83333 0.5-2.0833 0.83333-3.75 1s-2.6667 1.4167-3 3.75c-0.33333 2.3333-0.83333 3.5833-1.5 3.75l-1 0.25-2-0.5c-1.3333-0.33333-2.25-0.91667-2.75-1.75s-1-1.5-1.5-2-1.8333-0.83333-4-1l-3.25-0.25 0.25-2c0.16667-1.3333 0.75-2.25 1.75-2.75s1.5833-0.83333 1.75-1c0.16667-0.16667 0.33333-1.4167 0.5-3.75l0.25-3.5 2.5-0.25zm-0.25 3.75c-0.16667-1.6667 0.41667-2.25 1.75-1.75s2.5 0.75 3.5 0.75h1.5l1.5-0.25c1-0.16667 1.3333 0.41667 1 1.75-0.33333 1.3333 0.25 2.3333 1.75 3 1.5 0.66667 2.1667 1.0833 2 1.25-0.16667 0.16667-1.0833 0.33333-2.75 0.5s-2.6667 1.4167-3 3.75l-0.5 3.5-1.25-0.5c-0.83333-0.33333-1.5-1.3333-2-3s-1.4167-2.25-2.75-1.75-2.5 0.75-3.5 0.75h-1.5l2.25-2.75c1.5-1.8333 2.1667-3.5833 2-5.25z"/>
   <path d="m50.5 297z"/>
   <path d="m51.5 294v-1 2-1z"/>
   <path d="m53.5 286.5v-1.5 3-1.5z"/>
   <path d="m57 258.5c1-9 1.5833-13.167 1.75-12.5 0.16667 0.66667 0.75 1 1.75 1s1.4167 0.33333 1.25 1c-0.16667 0.66667-0.58333 4.1667-1.25 10.5l-1 9.5v-20l-1 13c-0.66667 8.6667-0.91667 13.667-0.75 15 0.16667 1.3333-0.083328 2-0.75 2h-1l-0.75 3c-0.5 2-0.58333 1-0.25-3s1-10.5 2-19.5z"/>
   <path d="m58.5 243z"/>
   <path d="m58.5 271.5v-1.5 3-1.5z"/>
   <path d="m59.5 236v-3 6-3z"/>
   <path d="m66 275.5c1.3333-11.667 2.3333-17.5 3-17.5h1l2.25 20 2.25 20 1.5-18c1-12 1.75-18.25 2.25-18.75s1.0833-0.83334 1.75-1c0.66666-0.16666 1.25 0.58334 1.75 2.25s1.5833 4.5 3.25 8.5 3.3333 9.5 5 16.5 2.5833 11.167 2.75 12.5l0.25 2h-1c-0.66666 0-1.4167-2.1667-2.25-6.5-0.83334-4.3333-1.75-8.3333-2.75-12s-2.1667-7.1667-3.5-10.5-2.3333-5.6667-3-7l-1-2-1 12c-0.66666 8-1.0833 14.333-1.25 19-0.16666 4.6667-0.58334 7-1.25 7s-1-0.5-1-1.5-0.33334-1.5-1-1.5-1.75-4.8333-3.25-14.5l-2.25-14.5-2 14.5-2 14.5-0.25 2c-0.16666 1.3333-0.58333 2-1.25 2s-0.91667-1.5-0.75-4.5 0.16667-4.5833 0-4.75c-0.16667-0.16666 0.083328-0.33334 0.75-0.5s1.6667-6.0833 3-17.75z"/>
   <path d="m92.5 277v-2l0.5 0.5c0.33334 0.33334 0.66666 1 1 2s0.75 1.0833 1.25 0.25c0.5-0.83334 1-0.83334 1.5 0s1.4167 4.0833 2.75 9.75 2 9.5 2 11.5v3l-0.5-0.5c-0.33334-0.33334-1.1667-3.4167-2.5-9.25l-2-8.75-0.5 8.75c-0.33334 5.8333-1 5.0833-2-2.25s-1.5-11.667-1.5-13zm3 3z"/>
   <path d="m104.25 86.5c-0.16666-1 0.16666-1.3333 1-1 0.83334 0.33334 1.75 1.8333 2.75 4.5s2.8333 7.5 5.5 14.5 4.3333 11 5 12c0.66666 1 1.6667 3.5 3 7.5s2.3333 7 3 9c0.66666 2 2 5.5 4 10.5s4 9.8333 6 14.5 3.8333 9.6667 5.5 15 2.8333 9 3.5 11c0.66667 2 1.6667 4.5 3 7.5s2.5 6.1667 3.5 9.5 2.5833 8.6667 4.75 16 3.5833 11.083 4.25 11.25l1 0.25-0.25 0.25c-0.16667 0.16667-0.083328 1.75 0.25 4.75s1.3333 7.3333 3 13 2.5833 9 2.75 10c0.16667 1 0.58333 1.5 1.25 1.5s1.25 2 1.75 6 1.75 9.8333 3.75 17.5 3.0833 12.5 3.25 14.5l0.25 3h-1c-0.66667 0-1.25-1.8333-1.75-5.5s-0.83333-4.6667-1-3-0.58333 2.5-1.25 2.5-1.25-2-1.75-6-0.91667-6.3333-1.25-7c-0.33333-0.66666-1.1667-3.8333-2.5-9.5s-2.1667-8.8333-2.5-9.5c-0.33333-0.66666-1-3-2-7s-2-7.3333-3-10-2.5-7.3333-4.5-14-3.1667-10.333-3.5-11c-0.33333-0.66667-1-2.6667-2-6s-2-6.3333-3-9-2.1667-6.3333-3.5-11-3-10-5-16-3.6667-11.5-5-16.5-3.25-10.833-5.75-17.5c-2.5-6.6667-4.0833-10-4.75-10-0.66666 0-1.25-1.1667-1.75-3.5s-1.25-5-2.25-8-1.6667-4.8333-2-5.5c-0.33334-0.66666-0.83334-2.1667-1.5-4.5s-1.5-4.8333-2.5-7.5-2.1667-5.8333-3.5-9.5l-2-5.5-0.5-0.5c-0.33334-0.33334-0.58334-1-0.75-2zm30.25 79.5v-1 2-1z"/>
   <path d="m107.25 271l-0.25-1h1.5c1 0 1.75 0.83334 2.25 2.5s1.5833 4.5 3.25 8.5 2.8333 6.8333 3.5 8.5c0.66666 1.6667 1.1667 2.6667 1.5 3 0.33334 0.33334 0.58334 1.8333 0.75 4.5s-0.25 4-1.25 4-1.5833-0.66666-1.75-2l-0.25-2-2-7.5c-1.3333-5-2.1667-8-2.5-9l-0.5-1.5-0.75 11.5c-0.5 7.6667-1.0833 11.5-1.75 11.5h-1l0.25-14.5c0.16666-9.6667 0.083344-14.667-0.25-15-0.33334-0.33334-0.58334-0.83334-0.75-1.5z"/>
   <path d="m124.25 274.5l-1.25-3.5h1.5c1 0 1.9167 1 2.75 3 0.83333 2 1.75 4 2.75 6s2.1667 5 3.5 9 2.25 7 2.75 9 0.41667 3-0.25 3-1.25-0.83334-1.75-2.5-1.25-3.8333-2.25-6.5l-1.5-4 0.5 5.5c0.33333 3.6667 0.58333 5.8333 0.75 6.5l0.25 1-1.25-0.5c-0.83333-0.33334-1.9167-4.1667-3.25-11.5s-2.4167-12.167-3.25-14.5z"/>
   <path d="m136.25 270.25l0.25-0.25 2 2.5c1.3333 1.6667 2.8333 5 4.5 10s2.8333 8.5 3.5 10.5c0.66667 2 0.83333 3.6667 0.5 5s-0.66667 1.5-1 0.5l-0.5-1.5-2.5-7-2.5-7 0.25 8.75c0.16667 5.8333-0.083328 8.8333-0.75 9-0.66667 0.16666-1.5-4.8333-2.5-15s-1.4167-15.333-1.25-15.5z"/>
   <path d="m150 259c1.3333-0.33334 2.4167 0.083344 3.25 1.25 0.83333 1.1667 2.25 4.0833 4.25 8.75s4 10.5 6 17.5 3 11 3 12v1.5l-0.5-0.5c-0.33333-0.33334-1.3333-3-3-8s-3.1667-9.5-4.5-13.5-2.5833-7.25-3.75-9.75-1.8333-3.8333-2-4l-0.25-0.25 0.25 18c0.16667 12-0.083328 18-0.75 18s-1.0833-0.83334-1.25-2.5l-0.25-2.5-0.5-15.5c-0.33333-10.333-0.75-16.25-1.25-17.75s-0.083328-2.4167 1.25-2.75z"/>
  </g>
  <g fill="#ff0" stroke-dasharray="null" stroke-linecap="null" stroke-linejoin="null">
   <path d="m125 18"/>
   <path d="m25 145c3-2 9 0 9 0s6 8 6 8l-11 2-3 9-4-10"/>
   <path d="m17 156l8-13-8 13z"/>
   <path d="m18 154l2-9 10 5-12 4z"/>
   <path d="m22 143l4 19-3-8-1-11z"/>
   <path d="m41 193l7-2-7 2z"/>
   <path d="m42 192l5 12 2-14"/>
   <path d="m37 198h14-14z"/>
   <path d="m38 198l15-2-11-5-4 7z"/>
   <path d="m24 161l1-18-1 18z"/>
   <path d="m23 143l20 10-26 1 14-7-6 18"/>
   <path d="m94 197" opacity=".46"/>
  </g>
  <path d="m75 3.25c2-0.16667 3.25 0.25 3.75 1.25s1.25 1.8333 2.25 2.5c1 0.66667 2 1.6667 3 3s2 2.5 3 3.5 1.5833 1.8333 1.75 2.5c0.16666 0.66667 0.75 1.25 1.75 1.75s2.1667 1.5833 3.5 3.25 2.1667 2.6667 2.5 3l0.5 0.5 3-0.5c2-0.33333 5-1.3333 9-3s7.5-3.1667 10.5-4.5 5.3333-1.8333 7-1.5c1.6667 0.33333 2.5833 0.58333 2.75 0.75 0.16667 0.16667 0.083328 1.0833-0.25 2.75s-1 3.8333-2 6.5-2.3333 6-4 10-2.6667 6.8333-3 8.5l-0.5 2.5 1.75 1.25c1.1667 0.83333 2.3333 1.6667 3.5 2.5 1.1667 0.83333 1.8333 1.5833 2 2.25 0.16666 0.66667 0.75 1.25 1.75 1.75s2.6667 1.9167 5 4.25 3.8333 3.5833 4.5 3.75c0.66667 0.16667 1.0833 1.0833 1.25 2.75 0.16667 1.6667-0.16667 2.75-1 3.25s-4.0833 1.4167-9.75 2.75-10.833 2.25-15.5 2.75l-7 0.75-0.75 3.5c-0.5 2.3333-1.4167 5.1667-2.75 8.5s-2.4167 6-3.25 8l-1.25 3-3-1.25c-2-0.83334-3.75-1.6667-5.25-2.5-1.5-0.83334-2.8333-1.6667-4-2.5-1.1667-0.83334-3.4167-2.25-6.75-4.25s-5.3333-3.0833-6-3.25l-1-0.25-0.75 29c-0.5 19.333-1.25 34-2.25 44s-1.8333 19.833-2.5 29.5c-0.66666 9.6667-1.5 21-2.5 34s-1.6667 20.667-2 23l-0.5 3.5-0.5-7.5c-0.33333-5-0.58333-8.5-0.75-10.5l-0.25-3h1c0.66667 0 1.0833-0.83333 1.25-2.5 0.16667-1.6667 0.33333-8.1667 0.5-19.5s0.58333-17 1.25-17c0.66666 0 1.0833-0.5 1.25-1.5 0.16666-1 0.58334-6.5 1.25-16.5s1.1667-19.333 1.5-28c0.33334-8.6667 0.41666-14.5 0.25-17.5s0.083344-4.5 0.75-4.5 0.75-4.6667 0.25-14-1-14.917-1.5-16.75c-0.5-1.8333-1.75-2.5833-3.75-2.25-2 0.33334-4.3333 1.1667-7 2.5s-6 2.6667-10 4-6.5 1.9167-7.5 1.75c-1-0.16666-1.5833-0.75-1.75-1.75-0.16667-1 0.25-2.8333 1.25-5.5s2.5833-7.25 4.75-13.75l3.25-9.75-7.75-7.75-9.75-9.75c-1.3333-1.3333-1.8333-2.6667-1.5-4 0.33333-1.3333 0.58333-2.0833 0.75-2.25 0.16667-0.16667 5.0833-0.66667 14.75-1.5s14.5-0.75 14.5 0.25-4.8333 1.9167-14.5 2.75l-14.5 1.25 3.25 2.75c2.1667 1.8333 5.4167 4.75 9.75 8.75s6.3333 7.3333 6 10c-0.33333 2.6667-1.1667 6.3333-2.5 11s-2.4167 8.6667-3.25 12l-1.25 5 5-1.75c3.3333-1.1667 6-2.25 8-3.25s4.5-2.1667 7.5-3.5 5.5-2.1667 7.5-2.5c2-0.33334 4 0 6 1s4.6667 2.5 8 4.5 5.6667 3.5 7 4.5 2.3333 1.6667 3 2c0.66666 0.33334 1.5833 0.41666 2.75 0.25s2.4167-1.9167 3.75-5.25 2.5833-6.5833 3.75-9.75 2.0833-4.9167 2.75-5.25c0.66666-0.33334 4.6667-1.1667 12-2.5s12.333-2.3333 15-3l4-1-9-8.5c-6-5.6667-9.4167-8.75-10.25-9.25-0.83334-0.5-1.0833-1.4167-0.75-2.75 0.33334-1.3333 0.83334-3 1.5-5s1.5-4.1667 2.5-6.5 1.8333-4.5 2.5-6.5c0.66666-2 1.25-4 1.75-6l0.75-3-1.5 0.75c-1 0.5-3.3333 1.25-7 2.25s-7.5 2.3333-11.5 4-6.6667 2.3333-8 2c-1.3333-0.33333-2.6667-1-4-2s-2.6667-2.3333-4-4-3.5-4.1667-6.5-7.5-5.25-5.75-6.75-7.25l-2.25-2.25-1.5 2.5c-1 1.6667-2.1667 4-3.5 7s-3.1667 7-5.5 12-3.6667 7.6667-4 8l-0.5 0.5 0.5-3.5c0.33333-2.3333 2.4167-7.4167 6.25-15.25s6.75-11.833 8.75-12z" fill-rule="evenodd"/>
  <g stroke-dasharray="null">
   <line x1="56" x2="88" y1="68" y2="66" fill="none"/>
   <g fill="#ff0" stroke-linecap="null" stroke-linejoin="null">
    <path d="m74 6l63 61-85-11"/>
    <path d="m30 43l26-3-2 21"/>
    <path d="m97 94l-51-34 19-34 32 68z"/>
    <path d="m40 92l10-32 19 18-29 14z"/>
    <path d="m61.134 66.278l-3.1343 9.1389 15.672 2.6111-13.582-23.5h67.91l-53.284-6.5278 21.94 47 9.403-37.861"/>
    <path d="m73 44"/>
    <path d="m101 71l30-4-28-4-42 16 18-7h-16l11-29 24 12"/>
    <path d="m96.942 27.292"/>
   </g>
  </g>
  <g fill="#ff0" stroke-dasharray="null" stroke-linecap="null" stroke-linejoin="null">
   <path d="m96.212 28.022l19.117 19.423 13.139-29.197"/>
   <path d="m72.124 84.956"/>
   <path d="m74.314 84.226" opacity=".5"/>
   <path d="m72.124 83.496s24.818 10.949 24.818 12.409c0 1.4598 5.8394-10.949 5.2482-11.234-0.59124-0.28468 73.584 211.96 72.993 211.68-0.59125-0.28467-8.1679 1.7445-8.7591 1.4598-0.59125-0.2847-15.467-37.672-16.058-37.956-0.59125-0.2847-0.13869 35.321-0.72992 35.036-0.59123-0.2847-12.548-22.343-13.139-22.628-0.59123-0.28467 1.3212 23.642 0.72992 23.358-0.59125-0.28467-13.277-24.533-13.869-24.818-0.59124-0.2847 7.1606 28.022 6.5693 27.737-0.59125-0.28467-9.6277-0.44525-10.219-0.72995-0.59124-0.2847-11.088-28.182-11.679-28.467-0.59124-0.28467-0.13869 30.212-0.72993 29.927-0.59124-0.28467-6.708 0.28467-7.2993 0-0.59124-0.28467-5.2482-23.073-5.8394-23.358-0.59124-0.28467-0.86861 18.533-1.4598 18.248-0.59124-0.28467-0.13869 5.3942-0.72993 5.1095-0.59124-0.28467-11.088-39.131-11.679-39.416-0.59124-0.2847-4.5182 37.511-5.1095 37.226-0.59124-0.28467-5.2482-37.672-5.8394-37.956-0.59124-0.2847-6.708 40.431-7.2993 40.146-0.59124-0.28467-3.7883-22.343-4.3796-22.628" opacity=".5"/>
  </g>
 </g>
</svg>
